<svg width="3198" height="2634" viewBox="0 0 3198 2634" fill="none" xmlns="http://www.w3.org/2000/svg">
<g clip-path="url(#clip0)">
<path d="M549.77 2589.04H2997.38" stroke="#78C7E3" stroke-width="2.08" stroke-miterlimit="10" stroke-linecap="round"/>
<path d="M453.044 2584.31C265.557 2468.73 154.847 2200.77 207.357 1986.89C218.737 1940.68 237.52 1894.34 272.686 1862.26C318.958 1820.1 386.755 1809.27 449 1816.47C609.409 1835.11 736.503 1954.19 862.842 2054.82C989.182 2155.45 1150.76 2246.76 1305 2198.3C1456.56 2150.65 1564.33 1976.54 1723.16 1986.82C1821.46 1993.26 1903.58 2078.27 1925.04 2174.44C1946.5 2270.62 1915.38 2372.9 1860.05 2454.47C1816.11 2519.39 1755.99 2574.51 1683.95 2605.29" fill="#78C7E3"/>
<g style="mix-blend-mode:screen" opacity="0.48">
<g style="mix-blend-mode:screen" opacity="0.48">
<path d="M1081.79 2573.48C911.316 2436.24 784.771 2252.07 717.788 2043.72C697.908 1981.27 683.513 1915.59 690.779 1850.47C698.046 1785.35 730.402 1720.22 786.408 1686.56C851.668 1647.01 934.821 1655.58 1008.79 1674.09C1155.9 1710.97 1296.7 1782.19 1448.13 1786.79C1603.88 1791.58 1752.5 1725.09 1890.9 1653.66C2029.31 1582.23 2167.71 1502.44 2321.47 1476.73C2475.23 1451.02 2651.68 1492.15 2740.32 1620.34C2769.05 1663.73 2788.9 1712.38 2798.72 1763.48C2831.7 1919.57 2796.32 2081.62 2751.56 2234.77C2719.27 2345.55 2648.32 2501.36 2576.07 2591.23" fill="#78C7E3"/>
</g>
</g>
<g style="mix-blend-mode:screen" opacity="0.48">
<g style="mix-blend-mode:screen" opacity="0.48">
<path d="M512.821 2552.57C372.702 2399.02 231.761 2235.25 163.827 2035.28C135.584 1952.34 119.338 1854.24 156.492 1771.43C201.736 1670.32 318.067 1645.37 416.986 1675.46C513.643 1704.66 600.086 1779.04 676.315 1842.45C681.525 1846.84 689.134 1839.3 683.855 1834.91C611.671 1774.79 533.934 1710.42 446.258 1674.57C363.996 1640.84 257.674 1641.46 189.74 1705.69C123.999 1767.39 117.144 1865.69 130.854 1949.59C148.335 2055.78 198.857 2157.44 255.823 2247.65C327.116 2360.7 415.615 2461.6 505.417 2560.11C510.079 2565.18 517.619 2557.64 513.026 2552.57H512.821Z" fill="#78C7E3"/>
</g>
</g>
<g style="mix-blend-mode:screen" opacity="0.48">
<g style="mix-blend-mode:screen" opacity="0.48">
<path d="M2190.95 1531.78C2340.73 1403.11 2626.66 1400.64 2747.58 1568.86C2798.17 1639.26 2815.45 1721.11 2821.21 1805.91C2826.69 1886.6 2826.9 1970.43 2812.36 2050.23C2811.13 2057.08 2821.41 2059.82 2822.65 2053.11C2838.76 1964.68 2838.14 1871.1 2829.98 1781.92C2821.82 1692.73 2796.73 1607.32 2737.03 1538.36C2667.31 1457.81 2566.54 1429.84 2462.82 1431.01C2362.19 1432.17 2260.94 1457.6 2183.34 1524.24C2178.13 1528.76 2185.74 1536.23 2190.88 1531.78H2190.95Z" fill="#78C7E3"/>
</g>
</g>
<g style="mix-blend-mode:screen">
<path d="M646.632 1907.37C646.632 1897.97 649.418 1888.79 654.639 1880.97C659.859 1873.16 667.278 1867.07 675.959 1863.48C684.639 1859.88 694.191 1858.94 703.406 1860.77C712.621 1862.61 721.086 1867.13 727.73 1873.78C734.374 1880.42 738.898 1888.88 740.731 1898.1C742.564 1907.31 741.623 1916.87 738.028 1925.55C734.432 1934.23 728.343 1941.65 720.531 1946.87C712.719 1952.09 703.534 1954.87 694.138 1954.87C681.539 1954.87 669.456 1949.87 660.547 1940.96C651.637 1932.05 646.632 1919.97 646.632 1907.37Z" stroke="#78C7E3" stroke-width="1.04" stroke-miterlimit="10"/>
</g>
<path d="M2495.86 2239.7C2495.86 2242.41 2496.67 2245.07 2498.18 2247.32C2499.68 2249.57 2501.82 2251.33 2504.33 2252.37C2506.83 2253.41 2509.59 2253.68 2512.25 2253.15C2514.91 2252.62 2517.35 2251.31 2519.27 2249.4C2521.19 2247.48 2522.49 2245.04 2523.02 2242.38C2523.55 2239.72 2523.28 2236.96 2522.24 2234.46C2521.2 2231.95 2519.45 2229.81 2517.19 2228.3C2514.94 2226.8 2512.29 2225.99 2509.58 2225.99C2505.94 2225.99 2502.45 2227.44 2499.88 2230.01C2497.31 2232.58 2495.86 2236.07 2495.86 2239.7Z" fill="#EB4D55"/>
<path d="M2734.28 2585.54C2800.22 2573.99 2862.68 2547.63 2916.96 2508.44C2971.23 2469.26 3015.91 2418.27 3047.63 2359.32C3076.22 2305.1 3089.65 2230.04 3044.27 2188.84C3016.85 2164.09 2976.06 2160.11 2940.21 2168.27C2904.36 2176.43 2871.66 2194.73 2838.55 2210.43C2777.62 2239.32 2713.05 2259.8 2646.61 2271.3C2627.69 2274.53 2601.3 2272.06 2598.62 2253C2598.4 2244.51 2601.17 2236.22 2606.44 2229.56C2672.79 2124.47 2780.83 2040.08 2805.24 1918.27C2808.71 1904.15 2809.16 1889.45 2806.54 1875.15C2799.27 1843.34 2768.29 1821.2 2736.27 1814.89C2675.74 1802.96 2616.38 1836.76 2565.38 1871.52C2290.21 2059.07 2073.66 2284.88 1922.78 2581.57" fill="#78C7E3"/>
<g style="mix-blend-mode:screen" opacity="0.48">
<g style="mix-blend-mode:screen" opacity="0.48">
<path d="M2531.44 2584.58C2634.81 2562.79 2726.73 2504.18 2790.09 2419.65C2814.97 2386.2 2835.67 2344.79 2826.28 2304.14C2732.09 2207.07 2610.62 2394.22 2497.72 2429.38C2474.68 2436.58 2441.78 2436.24 2435.33 2413.14C2432.39 2402.58 2436.84 2391.47 2441.23 2381.4L2546.94 2138.73C2560.23 2108.22 2572.85 2070.52 2552.69 2043.99C2538.98 2026.23 2514.3 2020.27 2492.23 2023.84C2470.16 2027.4 2450.35 2038.71 2431.22 2050.23C2206.1 2186.64 2037.12 2377.49 1868.28 2579.51" fill="#78C7E3"/>
</g>
</g>
<g style="mix-blend-mode:screen" opacity="0.48">
<g style="mix-blend-mode:screen" opacity="0.48">
<path d="M2811.2 2274.94C2888.59 2321.42 2853.5 2417.32 2806.88 2471.61C2763.77 2520.9 2708.55 2558.09 2646.68 2579.51C2644 2580.47 2645.17 2584.79 2647.84 2583.83C2722.02 2557.23 2793.17 2508.42 2835.19 2440.49C2868.99 2385.65 2874.75 2308.19 2812.98 2271.1C2810.58 2269.59 2808.32 2273.43 2810.79 2274.94H2811.2Z" fill="#78C7E3"/>
</g>
</g>
<g style="mix-blend-mode:screen" opacity="0.48">
<g style="mix-blend-mode:screen" opacity="0.48">
<path d="M2457.41 2425.89C2486.75 2355.83 2516.02 2285.77 2540.97 2214C2558.45 2163.68 2589.98 2096.16 2569.21 2042.62C2521.64 1919.57 2363.56 2075.39 2319.21 2123.92C2317.29 2126.05 2320.37 2129.2 2322.36 2127.07C2358.33 2086.91 2399.89 2052.12 2445.75 2023.77C2481.47 2002.1 2527.47 1985.93 2556.53 2027.88C2575.66 2055.3 2572.3 2090.74 2565.03 2121.52C2540.49 2225.79 2494.22 2326.49 2453.02 2424.93C2451.92 2427.6 2456.24 2428.77 2457.27 2426.16L2457.41 2425.89Z" fill="#78C7E3"/>
</g>
</g>
<g style="mix-blend-mode:screen">
<path d="M2805.31 2203.17C2805.29 2193.75 2808.07 2184.54 2813.29 2176.71C2818.52 2168.87 2825.95 2162.77 2834.64 2159.16C2843.34 2155.55 2852.91 2154.6 2862.14 2156.43C2871.38 2158.27 2879.86 2162.8 2886.52 2169.46C2893.18 2176.11 2897.71 2184.6 2899.54 2193.83C2901.38 2203.07 2900.43 2212.64 2896.82 2221.33C2893.21 2230.03 2887.1 2237.46 2879.27 2242.68C2871.43 2247.9 2862.23 2250.68 2852.81 2250.67C2840.21 2250.67 2828.13 2245.67 2819.22 2236.76C2810.31 2227.85 2805.31 2215.76 2805.31 2203.17V2203.17Z" stroke="#78C7E3" stroke-width="1.04" stroke-miterlimit="10"/>
</g>
<path d="M1886.86 1211.44C1966.24 1241.87 2054.33 1219.53 2093.26 1161.33C2171.07 1044.79 2112.73 1116.84 2102.66 1060.35C2092.58 1003.86 2044.39 1050.75 2025.47 1043.21C1995.03 1104.5 1947.32 1113.55 1901.05 1100.66L1886.86 1211.44Z" fill="#F8EEEE" stroke="#F8EEEE" stroke-width="1.06" stroke-linecap="round" stroke-linejoin="round"/>
<g style="mix-blend-mode:multiply">
<path d="M1885.76 1210C1965.14 1240.37 2053.23 1218.02 2092.17 1159.82C2169.97 1043.28 2111.64 1115.4 2101.63 1058.84C2091.62 1002.29 2043.36 1049.25 2024.37 1041.7C1994 1102.99 1946.22 1112.04 1899.95 1099.15L1885.76 1210Z" fill="#F8EEEE"/>
<path d="M1885.76 1210C1965.14 1240.37 2053.23 1218.02 2092.17 1159.82C2169.97 1043.28 2111.64 1115.4 2101.63 1058.84C2091.62 1002.29 2043.36 1049.25 2024.37 1041.7C1994 1102.99 1946.22 1112.04 1899.95 1099.15L1885.76 1210Z" stroke="#F8EEEE" stroke-width="1.06" stroke-linecap="round" stroke-linejoin="round"/>
</g>
<path d="M1564.12 1200.67C1547.26 1240.98 1531.28 1326.19 1499.41 1388.37C1462.6 1460.07 1392.33 1522.86 1294.65 1520.67C1242.27 1519.51 1172.01 1506.96 1116.89 1500.11C1061.78 1493.25 1096.33 1294.45 1152.33 1307.61C1205.19 1305.28 1260.1 1314.47 1311.23 1309.05C1375.33 1302.2 1409.61 1273.2 1450.05 1223.57C1464.99 1205.27 1482.89 1173.39 1498.72 1153.37C1500.03 1151.34 1500.56 1148.91 1500.23 1146.52C1500.23 1144.94 1500.23 1146.52 1499.75 1145.22C1493.92 1131.1 1460.2 1079.68 1470.41 1069.06C1480.62 1058.43 1495.91 1099.01 1501.19 1103.33C1506.47 1107.65 1509.76 1117.52 1517.98 1100.38C1526.21 1083.25 1539.78 1007.02 1554.66 995.913C1569.53 984.807 1547.8 1036.43 1556.17 1035.81C1564.53 1035.19 1577.14 994.679 1585.37 997.969C1591.75 1000.71 1575.91 1042.94 1580.64 1046.5C1590.24 1053.7 1596.34 1009.42 1606.55 1013.05C1616.77 1016.68 1598.67 1045.89 1599.7 1057.81C1600.73 1069.74 1611.83 1029.09 1618.69 1044.1C1625.54 1059.12 1594.35 1151.93 1577.08 1168.46C1566.38 1197.04 1580.91 1160.44 1564.12 1200.67Z" fill="#FFBE9E"/>
<path d="M1325.97 1380.96L1407.55 1490.03C1407.55 1490.03 1364.43 1514.09 1346.68 1515.87L1325.97 1380.96Z" fill="#D47770"/>
<path d="M1517.98 1100.66C1522.65 1098.88 1533.34 1121.22 1523.88 1120.2C1517.52 1118.82 1511.98 1114.97 1508.46 1109.5L1517.98 1100.66Z" fill="#D47770"/>
<path d="M1359.91 1532.94C1310.96 1535.34 1186.27 1533.9 1130.4 1513.75C1078.37 1494.96 1034.43 1448.9 1038.68 1405.37C1043.06 1361.84 1093.52 1288.83 1149.25 1300.01C1202.38 1290.55 1260.64 1287.8 1311.37 1281.5" fill="#4092C1"/>
<path d="M1359.91 1532.94C1310.96 1535.34 1186.27 1533.9 1130.4 1513.75C1078.37 1494.96 1034.43 1448.9 1038.68 1405.37C1043.06 1361.84 1093.52 1288.83 1149.25 1300.01C1202.38 1290.55 1260.64 1287.8 1311.37 1281.5" stroke="#4092C1" stroke-width="0.23" stroke-miterlimit="10"/>
<g style="mix-blend-mode:multiply" opacity="0.43">
<g style="mix-blend-mode:multiply" opacity="0.43">
<path d="M1359.91 1532.94C1310.96 1535.34 1186.27 1533.9 1130.4 1513.75C1078.37 1494.96 1034.43 1448.9 1038.68 1405.37C1043.06 1361.84 1093.52 1288.83 1149.25 1300.01C1202.38 1290.55 1260.64 1287.8 1311.37 1281.5L1359.91 1532.94Z" fill="#FF6F5E"/>
<path d="M1359.91 1532.94C1310.96 1535.34 1186.27 1533.9 1130.4 1513.75C1078.37 1494.96 1034.43 1448.9 1038.68 1405.37C1043.06 1361.84 1093.52 1288.83 1149.25 1300.01C1202.38 1290.55 1260.64 1287.8 1311.37 1281.5L1359.91 1532.94Z" stroke="#FF6F5E" stroke-width="0.23" stroke-miterlimit="10"/>
</g>
</g>
<path d="M1539.37 753.311C1593.46 657.339 1655.91 556.775 1774.57 538.54C1918.53 516.467 2009.08 645.891 1991.74 778.469C1991.74 780.525 1994.62 780.457 1994.83 778.469C2010.87 656.517 1936.08 529.286 1802.06 532.645C1668.04 536.004 1595.52 646.919 1536.63 751.665C1536.42 752.029 1536.37 752.461 1536.47 752.866C1536.58 753.271 1536.85 753.616 1537.21 753.825C1537.58 754.034 1538.01 754.09 1538.41 753.981C1538.82 753.871 1539.16 753.606 1539.37 753.242V753.311Z" fill="#EB4D55"/>
<path d="M1283.13 731.1C1198.06 717.801 1104.14 712.454 1037.51 776.96C980.956 831.801 959.157 915.228 965.738 992.074C980.75 1167.08 1129.09 1286.84 1298.14 1302.47C1300.27 1302.47 1300.2 1299.39 1298.14 1299.18C1138.97 1284.31 996.517 1176.48 971.633 1013.6C959.5 935.313 976.569 850.447 1029.76 789.848C1094.48 716.224 1193.6 720.337 1282.24 734.253C1284.29 734.596 1285.19 731.443 1283.13 731.1V731.1Z" fill="#EB4D55"/>
<path d="M1905.5 603.389C1762.23 524.282 1562.75 687.502 1506.61 801.228C1395.83 730.277 1145.96 674.066 1059.04 803.901C983.629 905.562 1031.61 1022.72 1107.02 1124.38C1285.8 1365.61 1599.49 1428.54 1653.51 1437.79C1654.7 1438 1655.93 1437.78 1656.98 1437.18C1658.03 1436.58 1658.84 1435.63 1659.27 1434.5L1659.89 1437.04C1660.09 1437.9 1660.51 1438.7 1661.1 1439.36C1661.7 1440.03 1662.45 1440.53 1663.28 1440.83C1664.12 1441.13 1665.02 1441.21 1665.9 1441.08C1666.78 1440.94 1667.61 1440.59 1668.32 1440.05C1712.12 1407.01 1962.2 1206.98 2010.39 910.292C2030.54 785.324 2019.23 659.259 1905.5 603.389Z" fill="#EB4D55"/>
<g style="mix-blend-mode:multiply" opacity="0.5">
<path d="M1989.14 844.552L1848.2 1251.13C1848.2 1251.13 1933.54 1171.54 1994.62 988.029C2054.88 806.986 1989.14 844.552 1989.14 844.552Z" fill="#EB4D55"/>
</g>
<g style="mix-blend-mode:multiply" opacity="0.5">
<path d="M1128.61 998.929C1128.61 1003.18 1353.6 1330.24 1353.6 1330.24C1353.6 1330.24 1200.25 1250.58 1117.99 1127.05C1091.46 1087.29 1128.61 998.929 1128.61 998.929Z" fill="#EB4D55"/>
</g>
<path d="M2104.51 1058.91L1982.9 871.493C1976.59 862.238 1979.54 828.785 1985.02 818.914C2000.69 792.535 2024.03 771.562 2051.93 758.795C2051.93 758.795 2342.04 572.199 2396.67 572.816C2405.72 572.816 2468.79 953.96 2224.61 1043.42" fill="#00263B"/>
<path d="M2000.86 812.539C2098.27 694.22 2252.78 616.346 2392.63 560.202C2397.84 558.146 2395.57 549.646 2390.3 551.771C2248.88 608.531 2093.26 686.542 1994.62 806.369C1991.05 810.688 1997.29 816.926 2000.86 812.539V812.539Z" fill="#00263B"/>
<path d="M2097.58 861.827C2097.71 862.137 2097.91 862.415 2098.15 862.642C2098.4 862.87 2098.69 863.042 2099.01 863.146C2099.33 863.25 2099.67 863.284 2100 863.246C2100.33 863.207 2100.66 863.098 2100.94 862.924C2102.98 861.281 2105.33 860.082 2107.86 859.406C2110.39 858.73 2113.03 858.591 2115.61 858.997C2118.2 859.404 2120.66 860.348 2122.86 861.768C2125.06 863.189 2126.93 865.053 2128.36 867.242C2137.62 880.953 2118.83 893.429 2112.6 900.147C2103.62 910.018 2088.33 943.883 2091.21 976.65C2093.33 1000.37 2117.12 1048.9 2117.12 1048.9C2117.12 1048.9 2050.49 1087.77 2022.38 1052.26C2022.38 1052.26 2043.77 973.976 2036.92 954.919C2036.92 954.508 2000.38 962.94 1982.62 900.078C1965.9 840.85 2007.92 820.765 2017.72 817.063C2025.88 813.841 2065.3 794.715 2097.58 861.827Z" fill="#FFBE9E"/>
<path d="M2029.72 1019.97C2030.88 1020.45 2072.22 1060.28 2072.22 1060.28C2072.22 1060.28 2042.13 1075.98 2022.25 1052.06L2029.72 1019.97Z" fill="#D47770"/>
<path d="M1989.68 915.571L2022.11 909.127C2022.11 909.127 2017.1 926.333 2007.44 926.539C1997.77 926.745 1989.68 915.571 1989.68 915.571Z" fill="white"/>
<path d="M2103.2 871.15C2105.61 869.708 2108.46 869.198 2111.21 869.716C2113.97 870.234 2116.43 871.744 2118.15 873.961C2119.08 876.702 2119.02 879.685 2117.96 882.382C2116.91 885.079 2114.94 887.317 2112.39 888.699" fill="#D47770"/>
<path d="M1998.67 892.332L2003.6 908.305L1994.96 909.196C1994.6 909.232 1994.24 909.175 1993.91 909.03C1993.57 908.885 1993.28 908.658 1993.06 908.369C1992.84 908.08 1992.7 907.74 1992.65 907.381C1992.6 907.022 1992.64 906.655 1992.77 906.317L1998.67 892.332Z" fill="#D47770"/>
<path d="M1987.9 833.31C1987.9 833.31 2061.8 875.811 2100.94 862.718C2140.08 849.625 2078.46 762.017 2036.37 788.477C1994.28 814.938 1987.9 833.31 1987.9 833.31Z" fill="#00263B"/>
<path d="M2036.57 954.714C2050.57 952.25 2063.46 945.494 2073.45 935.382C2082.57 925.991 2065.02 980.352 2036.44 985.219C2036.57 985.219 2036.57 969.109 2036.57 954.714Z" fill="#D47770"/>
<path d="M2019.09 865.049C2022.38 866.557 2016.14 858.194 2011.89 857.851C2010.96 857.665 2010 857.674 2009.07 857.878C2008.15 858.083 2007.27 858.478 2006.5 859.039C2005.74 859.6 2005.09 860.314 2004.62 861.136C2004.14 861.958 2003.84 862.87 2003.74 863.815C2008.84 862.405 2014.28 862.842 2019.09 865.049V865.049Z" fill="#00263B"/>
<path d="M1979.06 864.638C1980.79 863.758 1982.8 863.589 1984.65 864.165C1986.51 864.741 1988.07 866.017 1989 867.722C1985.32 867.91 1981.74 868.992 1978.58 870.876" fill="#00263B"/>
<path d="M2012.24 887.328C2012.65 890.276 2011.83 892.812 2010.39 893.018C2008.95 893.223 2007.51 890.961 2007.1 888.082C2006.69 885.203 2007.51 882.598 2008.95 882.392C2010.39 882.187 2011.83 884.449 2012.24 887.328Z" fill="#00263B"/>
<path d="M1992.08 890.138C1992.49 892.949 1991.67 895.417 1990.3 895.554C1988.93 895.691 1987.56 893.634 1987.15 890.824C1986.74 888.013 1987.56 885.614 1988.93 885.477C1990.3 885.34 1991.67 887.396 1992.08 890.138Z" fill="#00263B"/>
<path opacity="0.37" d="M2060.7 904.603C2060.68 907.778 2059.71 910.874 2057.92 913.498C2056.13 916.122 2053.6 918.156 2050.66 919.343C2047.71 920.53 2044.48 920.816 2041.37 920.164C2038.27 919.513 2035.42 917.954 2033.2 915.685C2030.98 913.416 2029.48 910.538 2028.9 907.417C2028.31 904.296 2028.67 901.071 2029.92 898.152C2031.17 895.233 2033.25 892.75 2035.92 891.019C2038.58 889.287 2041.69 888.384 2044.87 888.425C2049.11 888.479 2053.16 890.212 2056.13 893.244C2059.09 896.276 2060.74 900.36 2060.7 904.603Z" fill="#FF6F5E" stroke="#FF6F5E" stroke-width="0.23" stroke-miterlimit="10"/>
<path d="M2045.28 1993.67C2069.82 2024.38 2137.96 2092.04 2137.96 2092.04L2018.54 2208.1C2025.4 2185.62 2041.85 2099.65 2041.85 2099.65L1996.4 2039.81C1996.4 2039.81 2045.83 1994.08 2045.28 1993.67Z" fill="#FFBE9E"/>
<path d="M2041.65 2100.06L2015.6 2208.37C2015.34 2209.43 2015.41 2210.54 2015.81 2211.56C2016.2 2212.57 2016.9 2213.44 2017.81 2214.04C2018.72 2214.64 2019.79 2214.95 2020.88 2214.91C2021.97 2214.88 2023.02 2214.51 2023.89 2213.86C2055.84 2188.5 2141.39 2119.46 2163.8 2101.3C2164.45 2100.78 2164.96 2100.12 2165.3 2099.37C2165.64 2098.62 2165.79 2097.8 2165.75 2096.98C2165.71 2096.15 2165.48 2095.35 2165.07 2094.64C2164.66 2093.92 2164.08 2093.32 2163.39 2092.87C2147.08 2081.97 2104.78 2048.51 2091.41 2039.88C2089.29 2038.44 2096.83 2088.82 2084.56 2092.66C2073.93 2095.75 2042.4 2099.58 2041.65 2100.06Z" fill="#FF6F5E" stroke="#FF6F5E" stroke-width="0.23" stroke-miterlimit="10"/>
<path d="M2127.68 2130.5L2163.8 2101.3C2164.45 2100.78 2164.96 2100.12 2165.3 2099.37C2165.64 2098.62 2165.79 2097.8 2165.75 2096.98C2165.71 2096.15 2165.48 2095.35 2165.07 2094.64C2164.66 2093.92 2164.08 2093.32 2163.39 2092.87C2155.23 2087.45 2140.02 2075.8 2125.41 2065.45L2127.68 2130.5Z" fill="#00263B"/>
<path d="M2039.8 2106.17L2065.3 2108.84C2068.2 2109.17 2070.85 2110.62 2072.69 2112.89C2074.52 2115.17 2075.39 2118.07 2075.1 2120.97V2120.97C2074.77 2123.87 2073.31 2126.53 2071.04 2128.36C2068.77 2130.2 2065.87 2131.06 2062.97 2130.78L2034.31 2127.69" stroke="#00263B" stroke-width="0.52" stroke-miterlimit="10"/>
<path d="M2046.03 1992.92L2091.41 2039.94C2091.41 2039.94 2094.98 2075.59 2092.24 2078.2C2089.5 2080.8 2025.4 2013.35 2025.4 2013.35L2046.03 1992.92Z" fill="#D47770"/>
<path d="M2750.05 1650.16C2782.55 1633.71 2830.87 1567.15 2830.87 1567.15C2830.87 1567.15 2982.58 1671.28 2980.93 1671.28C2979.29 1671.28 2866.8 1676.42 2866.8 1676.42L2790.64 1702.67C2790.64 1702.67 2754.58 1654.69 2750.05 1650.16Z" fill="#FFBE9E" stroke="#FFBE9E" stroke-width="0.93" stroke-miterlimit="10"/>
<path d="M2868.85 1680.05L2980.59 1675.18C2981.68 1675.13 2982.73 1674.75 2983.59 1674.08C2984.45 1673.41 2985.08 1672.48 2985.4 1671.44C2985.72 1670.39 2985.7 1669.28 2985.35 1668.24C2985.01 1667.21 2984.35 1666.3 2983.47 1665.66C2949.95 1642.28 2859.39 1580.04 2835.54 1563.72C2832.59 1561.8 2825.12 1565.02 2823.13 1567.97C2809.82 1587.2 2795.26 1605.52 2779.53 1622.81C2777.75 1624.59 2842.73 1631.38 2849.93 1642.07C2856.1 1651.4 2865.49 1680.74 2868.85 1680.05Z" fill="#FF6F5E" stroke="#FF6F5E" stroke-width="0.23" stroke-miterlimit="10"/>
<path d="M2873.85 1590.04L2835.53 1563.72C2833.43 1563.07 2831.17 1563.06 2829.06 1563.7C2826.95 1564.33 2825.07 1565.58 2823.68 1567.29C2816.34 1579.01 2806.88 1589.08 2796.67 1604.37L2873.85 1590.04Z" fill="#00263B"/>
<path d="M2878.24 1678.2L2876.32 1650.16C2876.13 1647.24 2877.11 1644.36 2879.04 1642.15C2880.96 1639.94 2883.68 1638.58 2886.61 1638.37V1638.37C2888.06 1638.27 2889.51 1638.46 2890.89 1638.92C2892.27 1639.38 2893.54 1640.11 2894.64 1641.06C2895.73 1642.02 2896.63 1643.18 2897.27 1644.49C2897.92 1645.79 2898.3 1647.21 2898.4 1648.66L2900.32 1677.58" stroke="#00263B" stroke-width="0.52" stroke-miterlimit="10"/>
<path d="M2778.16 1691.64L2858.98 1660.65L2868.85 1680.05L2788.24 1706.24L2778.16 1691.64Z" fill="#D47770"/>
<path d="M2271.09 1464.32C2279.52 1443.07 2276.78 1419.7 2254.98 1389.26C2233.18 1358.82 2229.48 1337.91 2201.78 1313.85C2186.22 1318.99 2131.79 1342.71 2105.33 1354.98C1988.11 1409.28 1910.99 1461.72 1849.64 1563.04C1789.72 1662.16 1841.2 1797.55 1881.92 1879.81C1914 1944.66 1954.86 1981.68 1997.5 2037C2005.73 2039.88 2044.59 1997.79 2044.8 1992.99C1971.24 1863.22 1963.91 1756.9 2010.18 1682.31C2053.51 1612.67 2101.49 1579.08 2155.1 1548.64C2155.1 1548.5 2241.68 1538.56 2271.09 1464.32Z" fill="#4092C1" stroke="#4092C1" stroke-width="0.22" stroke-miterlimit="10"/>
<g style="mix-blend-mode:multiply" opacity="0.43">
<g style="mix-blend-mode:multiply" opacity="0.43">
<path d="M2010.18 1682.18C2053.5 1612.53 2101.49 1578.94 2155.1 1548.5C2155.1 1548.5 2241.68 1538.56 2271.09 1464.32C2279.52 1443.07 2276.78 1419.7 2254.98 1389.26C2233.18 1358.82 2227.56 1337.5 2199.79 1313.24C2184.23 1318.38 2131.79 1342.58 2105.33 1354.85" fill="#4092C1"/>
</g>
</g>
<path d="M2073.73 1362.25C2119.93 1340.86 2204.32 1310.56 2208.91 1316.05C2267.59 1343.12 2311.74 1410.03 2321.95 1471.18C2323.91 1482.99 2327.37 1494.51 2332.23 1505.45C2355.17 1560.81 2391.83 1609.41 2438.76 1646.67C2507.31 1701.85 2610.76 1705.48 2748.68 1648.59C2756.5 1665.11 2792.07 1698.36 2788.23 1706.17C2727.98 1741.68 2687.19 1774.72 2618.85 1798.44C2532.13 1828.67 2391.39 1863.01 2300.49 1791.24C2219.41 1727.79 2158.32 1642.33 2124.52 1545.08L2073.73 1362.25Z" fill="#4092C1" stroke="#4092C1" stroke-width="0.22" stroke-miterlimit="10"/>
<g style="mix-blend-mode:multiply" opacity="0.5">
<path d="M2132.54 1564.61C2132.54 1564.61 2345.05 1969.06 2785.08 1701.71C2701.75 1769.99 2600.97 1813.59 2494.15 1827.57C2488.12 1819.83 2285.55 1905.65 2132.54 1564.61Z" fill="#4092C1"/>
</g>
<path d="M2027.94 1026.69C2024.37 1030.19 1973.44 1135.55 1982.9 1179.56C1989.2 1209.11 2046.1 1309.81 2067.56 1366.64C2067.56 1366.64 2155.72 1344.84 2209.6 1318.65C2212.06 1271.97 2227.28 1092.91 2162.43 1023.47C2144.6 1021.72 2126.68 1021.01 2108.76 1021.35C2108.76 1021.35 2042.19 1080.3 2027.94 1026.69Z" fill="#FFBE9E" stroke="#FFBE9E" stroke-width="1.06" stroke-linecap="round" stroke-linejoin="round"/>
<path d="M2214.26 1292.88L2213.3 1307.07L2098.61 1356.56L2214.26 1292.88Z" fill="#D47770"/>
<path d="M2027.94 1026.69C2024.37 1030.19 1973.44 1135.55 1982.9 1179.56C1989.2 1209.11 2046.1 1309.81 2067.56 1366.64C2067.56 1366.64 2094.98 1358.96 2231.4 1279.23C2233.8 1232.55 2227.28 1092.98 2162.43 1023.54C2144.6 1021.79 2126.68 1021.08 2108.76 1021.41C2108.76 1021.41 2042.19 1080.3 2027.94 1026.69Z" fill="#F8EEEE" stroke="#F8EEEE" stroke-width="1.06" stroke-miterlimit="10"/>
<g style="mix-blend-mode:multiply">
<path d="M2067.56 1366.64C2067.56 1366.64 2094.98 1358.96 2231.4 1279.23C2233.8 1232.55 2227.28 1092.98 2162.43 1023.54C2144.6 1021.79 2126.68 1021.08 2108.76 1021.41" fill="#F8EEEE"/>
<path d="M2067.56 1366.64C2067.56 1366.64 2094.98 1358.96 2231.4 1279.23C2233.8 1232.55 2227.28 1092.98 2162.43 1023.54C2144.6 1021.79 2126.68 1021.08 2108.76 1021.41" stroke="#F8EEEE" stroke-width="1.06" stroke-linecap="round" stroke-linejoin="round"/>
</g>
<path d="M2138.92 1148.99C2360.07 1184.57 2514.72 845.649 2514.72 845.649L2542.48 768.94C2591.49 703.268 2600.27 668.445 2600.27 668.445L2568.8 711.837L2596.91 643.286C2597.66 641.435 2592.18 645.617 2591.08 647.262L2557.56 698.607L2581.97 627.862C2582.04 627.696 2582.09 627.516 2582.09 627.333C2582.1 627.15 2582.07 626.967 2582.01 626.795C2581.94 626.623 2581.85 626.465 2581.72 626.331C2581.6 626.197 2581.45 626.088 2581.28 626.012C2581.11 625.935 2580.93 625.892 2580.75 625.885C2580.57 625.878 2580.39 625.907 2580.21 625.971C2580.04 626.035 2579.88 626.131 2579.75 626.256C2579.61 626.381 2579.51 626.53 2579.43 626.697L2539.4 691.409C2539.4 691.409 2561.4 623.338 2554.75 628.548C2548.1 633.758 2511.43 709.712 2511.43 709.712C2511.43 709.712 2513.62 655.214 2507.31 661.727C2503.2 665.84 2497.85 701.075 2494.56 725.205C2492.51 740.766 2496.89 743.165 2488.87 756.875L2430.95 856.96C2383.31 942.512 2273.28 1048.9 2131.04 1023.4C2131.04 1023.4 2083.05 1024.77 2073.18 1081.88C2063.31 1138.98 2138.92 1148.99 2138.92 1148.99Z" fill="#FFBE9E" stroke="#FFBE9E" stroke-width="1.06" stroke-linecap="round" stroke-linejoin="round"/>
<path d="M2331.34 967.19C2277.53 1007.77 2221.66 1016.07 2130.9 1023.33C2130.9 1023.33 2082.91 1024.7 2073.04 1081.81C2063.17 1138.91 2138.78 1148.99 2138.78 1148.99C2213.16 1160.98 2258.2 1161.46 2314.21 1115.81L2331.34 967.19Z" fill="#F8EEEE" stroke="#F8EEEE" stroke-width="1.06" stroke-linecap="round" stroke-linejoin="round"/>
<path d="M2332.23 992.074L2371.24 1057.47C2371.24 1057.47 2334.57 1092.5 2319.83 1101L2332.23 992.074Z" fill="#D47770"/>
<path d="M2489.49 747.004C2494.43 749.677 2500.18 755.23 2498.4 758.589C2496.62 761.948 2487.85 761.605 2482.98 758.932" fill="#D47770"/>
<path d="M2515.27 693.603C2515.27 693.603 2519.38 716.979 2519.17 716.362L2528.15 668.376L2515.27 693.603Z" fill="#D47770"/>
<path d="M1907.7 1482.15C1887.54 1449.65 1894.95 1404.96 1918.87 1375.14C1942.8 1345.32 1980.02 1328.73 2017.65 1321.87C2055.29 1315.02 2093.81 1316.8 2132 1317.55C2248.53 1319.88 2368.84 1310.7 2472.42 1257.91C2576 1205.13 2659.22 1098.47 2654.97 982.134C2655.33 969.707 2652.19 957.429 2645.92 946.693C2639.07 936.548 2625.36 930.104 2613.77 935.108C2609.92 937.194 2606.52 940.036 2603.79 943.463C2601.06 946.891 2599.04 950.834 2597.87 955.056C2591.01 973.702 2592.52 996.598 2606.03 1011.2C2612.63 1017.5 2620.7 1022.06 2629.51 1024.45C2638.33 1026.85 2647.59 1027 2656.48 1024.91C2674.24 1020.58 2690.78 1012.23 2704.81 1000.51C2757.32 960.609 2795.64 904.534 2845.68 861.895C2895.72 819.257 2966.88 789.3 3027.34 815.623" stroke="#EB4D55" stroke-width="0.56" stroke-miterlimit="10"/>
<path d="M1017.7 1147.2C1021.31 1146.67 1024.98 1146.87 1028.51 1147.77C1032.04 1148.68 1035.36 1150.28 1038.26 1152.48L1045.12 1070.22C1045.12 1070.22 1057.18 1046.16 1072.2 1051.71C1087.21 1057.27 1097.84 1051.3 1106.47 1054.18C1129.16 1062.13 1131.29 1041.84 1131.29 1041.84C1131.29 1041.84 1108.32 1010.17 1088.85 1005.3C1069.39 1000.44 1012.9 1007.22 995.9 1034.58C978.899 1061.93 967.862 1080.3 1015.16 1149.74L1042.24 1154.95" fill="#00263B"/>
<path d="M1090.57 1037.87C1099.34 1046.37 1129.16 1033.48 1129.3 1024.16C1128.75 1013.27 1126.12 1002.59 1121.55 992.691C1119.57 988.304 1110.93 985.424 1106.75 983.094C1103.5 981.41 1099.83 980.718 1096.19 981.106C1089.69 982.202 1083.6 984.981 1078.51 989.167C1073.42 993.353 1069.52 998.798 1067.19 1004.96C1064.74 1009.36 1063.46 1014.32 1063.46 1019.36C1063.46 1024.4 1064.74 1029.35 1067.19 1033.75" fill="#00263B"/>
<path d="M1084.74 1048.35C1098.45 1058.64 1121.96 1050.07 1133.28 1039.85C1147.74 1026.9 1141.16 999.683 1131.56 985.013C1119.29 966.573 1091.05 964.448 1074.39 976.787C1055.68 990.497 1044.91 1017.92 1057.12 1039.31C1058.93 1041.59 1061.51 1043.15 1064.38 1043.68C1067.25 1044.21 1070.22 1043.68 1072.73 1042.19C1075.24 1040.7 1077.13 1038.35 1078.04 1035.58C1078.95 1032.8 1078.82 1029.79 1077.68 1027.1C1065.75 1006.54 1104.07 977.404 1113.05 1003.38C1114.98 1008.2 1116.25 1013.25 1116.82 1018.4C1116.82 1021.76 1118.19 1020.66 1114.36 1023.4C1110.52 1026.14 1100.65 1030.26 1096.67 1027.17C1084.26 1017.78 1072.2 1038.76 1084.47 1048.08L1084.74 1048.35Z" fill="#00263B"/>
<path d="M1052.8 1020.11C1052.63 1016.15 1051.32 1012.31 1049.03 1009.07C1046.92 1005.42 1044.07 1002.24 1040.66 999.752C1038.95 998.528 1036.99 997.686 1034.92 997.284C1032.85 996.882 1030.72 996.929 1028.67 997.421C1021.81 999.409 1018.25 1007.16 1016.4 1014.15C1015.82 1015.8 1015.61 1017.55 1015.78 1019.29C1015.9 1020.15 1016.27 1020.96 1016.84 1021.61C1017.42 1022.27 1018.16 1022.75 1019 1022.99C1018.45 1023.74 1017.84 1024.43 1017.22 1025.18C1017.34 1024.19 1017.14 1023.18 1016.67 1022.29C1016.19 1021.41 1015.45 1020.69 1014.55 1020.25C1012.72 1019.42 1010.72 1019.02 1008.72 1019.08C1003.38 1019.02 998.067 1019.76 992.952 1021.28C990.98 1021.66 989.116 1022.47 987.493 1023.66C985.87 1024.84 984.528 1026.37 983.56 1028.13C982.957 1030.48 982.897 1032.94 983.384 1035.31C983.871 1037.69 984.892 1039.92 986.371 1041.84C987.494 1044.47 989.544 1046.59 992.129 1047.81" fill="#00263B"/>
<path d="M1064.93 1020.11C1062.53 1000.64 1044.37 977.884 1022.57 986.932C1006.18 993.788 995.146 1022.51 1012.9 1033.41L1010.43 1014.42L1008.65 1016.62L1028.87 1021.96C1024.97 1002.08 996.722 1004.89 983.081 1012.23C964.503 1022.24 969.782 1048.15 986.028 1057.75C988.783 1059.11 991.95 1059.37 994.892 1058.49C997.834 1057.6 1000.33 1055.63 1001.88 1052.98C1003.43 1050.33 1003.91 1047.19 1003.24 1044.19C1002.56 1041.19 1000.77 1038.57 998.23 1036.84C993.5 1034.03 998.23 1032.79 1000.01 1031.97L1004.74 1031.28C1009.82 1032.11 1010.09 1031.15 1005.57 1028.41C1006.11 1030.5 1007.21 1032.42 1008.74 1033.95C1010.28 1035.48 1012.19 1036.57 1014.29 1037.11C1016.39 1037.65 1018.6 1037.61 1020.68 1037.01C1022.76 1036.41 1024.64 1035.26 1026.13 1033.68L1027.91 1031.56C1029.18 1030.23 1030.12 1028.63 1030.69 1026.89C1031.26 1025.15 1031.43 1023.3 1031.2 1021.48C1030.96 1019.66 1030.32 1017.92 1029.33 1016.38C1028.33 1014.83 1027.01 1013.53 1025.45 1012.57C1030.72 1015.79 1029.28 1009.97 1033.67 1010.31C1037.03 1010.31 1040.53 1017.51 1041.07 1020.11C1042.93 1035.33 1067.19 1035.54 1065.27 1020.11H1064.93Z" fill="#00263B"/>
<path d="M1384.04 2606.45C1384.04 2613.31 1462.12 2618.52 1500.02 2618.52C1537.93 2618.52 1568.58 2613.1 1568.58 2606.45C1568.58 2599.8 1537.8 2594.39 1500.02 2594.39C1462.25 2594.39 1384.04 2599.8 1384.04 2606.45Z" fill="#00263B" stroke="#00263B" stroke-width="0.79" stroke-miterlimit="10"/>
<path d="M555.048 2594.32C555.048 2601.17 476.968 2606.38 439.059 2606.38C401.151 2606.38 370.508 2600.97 370.508 2594.32C370.508 2587.67 401.151 2582.46 439.334 2582.46C477.516 2582.46 555.048 2587.67 555.048 2594.32Z" fill="#00263B" stroke="#00263B" stroke-width="0.79" stroke-miterlimit="10"/>
<path d="M1510.44 2455.16L1487.41 2621.74L1723.5 2634.35L1724.46 2615.77L1594.42 2530.84L1631.16 2464.41L1510.44 2455.16Z" fill="#FFBE9E"/>
<path d="M1510.44 2455.16L1487.41 2621.74L1723.5 2634.35L1724.46 2615.77L1525.05 2528.65L1540.4 2455.23L1510.44 2455.16Z" fill="#D47770"/>
<path d="M1594.42 2530.84L1724.46 2615.77L1723.5 2634.35L1487.41 2621.74L1502.22 2514.87" fill="#FF6F5E"/>
<path d="M1594.42 2530.84L1724.46 2615.77L1723.5 2634.35L1487.41 2621.74L1502.22 2514.87" stroke="#FF6F5E" stroke-width="0.23" stroke-miterlimit="10"/>
<path d="M1618.34 2546.61L1584.75 2568.47" stroke="#FFFCF2" stroke-width="0.47" stroke-linecap="square" stroke-linejoin="round"/>
<path d="M1636.72 2557.92L1603.06 2579.78" stroke="#FFFCF2" stroke-width="0.47" stroke-linecap="square" stroke-linejoin="round"/>
<path d="M728.482 2350L571.089 2361.38L535.031 2593.97L553.403 2596.85L650.745 2476.48L739.382 2464.28L728.482 2350Z" fill="#FFBE9E"/>
<path d="M733.212 2443.78L575.819 2455.16L535.031 2593.98L553.403 2596.85L650.745 2476.48L739.382 2464.28L733.212 2443.78Z" fill="#D47770"/>
<path d="M670.967 2356.79L570.814 2363.09L534.825 2595.69L553.197 2598.5L650.471 2478.12" fill="#FF6F5E"/>
<path d="M670.967 2356.79L570.814 2363.09L534.825 2595.69L553.197 2598.5L650.471 2478.12" stroke="#FF6F5E" stroke-width="0.23" stroke-miterlimit="10"/>
<path d="M614.344 2523.02L587.198 2485.94" stroke="#FFFCF2" stroke-width="0.47" stroke-linecap="square" stroke-linejoin="round"/>
<path d="M626.821 2511.85L599.675 2474.76" stroke="#FFFCF2" stroke-width="0.47" stroke-linecap="square" stroke-linejoin="round"/>
<path d="M1398.36 1761.7C1327.82 1783.77 1148.97 1853.9 1143.83 1860.41C1145.41 1891.74 1122.31 2026.71 1067.4 2127.07C1022.22 2209.33 928.377 2270.07 713.538 2321.28C713.538 2323.2 727.66 2453.24 732.39 2462.15C858.592 2456.87 1109.42 2427.46 1218.42 2349.04C1294.99 2294.2 1368.68 2191.37 1402.27 2072.51C1421.67 2003.68 1398.36 1761.7 1398.36 1761.7Z" fill="#00263B" stroke="#00263B" stroke-width="0.99" stroke-miterlimit="10"/>
<g style="mix-blend-mode:multiply">
<g style="mix-blend-mode:multiply">
<path d="M1218.42 2349.38C1294.99 2294.54 1368.68 2191.72 1402.27 2072.85C1421.67 2004.3 1398.36 1762.04 1398.36 1762.04C1327.82 1784.11 1153.57 1839.09 1148.43 1845.53" fill="#00263B"/>
<path d="M1218.42 2349.38C1294.99 2294.54 1368.68 2191.72 1402.27 2072.85C1421.67 2004.3 1398.36 1762.04 1398.36 1762.04C1327.82 1784.11 1153.57 1839.09 1148.43 1845.53" stroke="#00263B" stroke-width="0.99" stroke-miterlimit="10"/>
</g>
</g>
<path d="M1170.22 2054.61C1122.24 2016.5 1144.59 1897.36 1154.87 1858.28C1165.15 1819.21 1156.24 1851.43 1174.06 1817.15C1190.31 1817.5 1297.87 1784.39 1325.77 1777.33C1447.92 1746.41 1663.52 1727.63 1754.28 1815.71C1888.02 1945.96 1666.81 2396.55 1645.21 2468.66C1638.36 2474.35 1514.97 2462.9 1511.06 2461.33C1536.84 2300.78 1599.63 2072.85 1555 2043.17C1504.41 2009.23 1247.41 2115.63 1170.22 2054.61Z" fill="#00263B" stroke="#00263B" stroke-width="0.99" stroke-miterlimit="10"/>
<g style="mix-blend-mode:multiply">
<g style="mix-blend-mode:multiply">
<path d="M1575.91 2467.09C1580.64 2470.65 1515.17 2462.49 1511.06 2460.92C1536.84 2300.37 1599.63 2072.44 1555 2042.76L1590.1 2043.3C1590.1 2043.3 1631.57 2045.7 1619.71 2130.91L1575.91 2467.09Z" fill="#00263B"/>
<path d="M1575.91 2467.09C1580.64 2470.65 1515.17 2462.49 1511.06 2460.92C1536.84 2300.37 1599.63 2072.44 1555 2042.76L1590.1 2043.3C1590.1 2043.3 1631.57 2045.7 1619.71 2130.91L1575.91 2467.09Z" stroke="#00263B" stroke-width="0.99" stroke-miterlimit="10"/>
</g>
</g>
<path d="M1408.58 1751.07L1133.41 1871.1C1133.41 1871.1 1016.88 1590.66 1002.34 1440.47C995.9 1372.94 1031.61 1309.12 1098.31 1295.48C1200.66 1270.05 1293.62 1383.57 1309.04 1441.7L1408.58 1751.07Z" fill="#4092C1" stroke="#4092C1" stroke-width="0.23" stroke-miterlimit="10"/>
<path d="M1037.17 1172.64L1049.92 1313.78L1174.82 1299.32L1127.11 1197.25L1046.7 1160.44L1037.17 1172.64Z" fill="#FFBE9E"/>
<path d="M1049.44 1172.36L1128.07 1199.78L1133.28 1212.53C1133.28 1212.53 1141.3 1265.32 1049.44 1172.36Z" fill="#D47770"/>
<path d="M1045.6 1279.37L1033.53 1325.44L1188.6 1337.78L1164.06 1299.87L1045.6 1279.37Z" fill="#F8EEEE"/>
<path d="M1156.38 1259.42C1158.43 1259.42 1184.9 1295.69 1184.9 1295.69L1202.03 1327.15L1164.88 1301.99L1156.38 1259.42Z" fill="#F8EEEE"/>
<path d="M1156.38 1259.29L1164.06 1299.87L1147.88 1296.92L1156.38 1259.29Z" fill="#D47770"/>
<g style="mix-blend-mode:multiply" opacity="0.43">
<path d="M1408.58 1751.07L1133.41 1871.1C1133.41 1871.1 1016.88 1590.66 1002.34 1440.47" fill="#FF6F5E"/>
<path d="M1408.58 1751.07L1133.41 1871.1C1133.41 1871.1 1016.88 1590.66 1002.34 1440.47" stroke="#FF6F5E" stroke-width="0.23" stroke-miterlimit="10"/>
</g>
<g style="mix-blend-mode:multiply" opacity="0.43">
<path d="M1345.78 1750.73L1295.13 1768.55C1251.01 1784.04 1202.57 1781.58 1160.25 1761.69C1117.94 1741.8 1085.13 1706.08 1068.91 1662.23L1063.22 1646.87L1095.92 1641.8" fill="#FF6F5E"/>
<path d="M1345.78 1750.73L1295.13 1768.55C1251.01 1784.04 1202.57 1781.58 1160.25 1761.69C1117.94 1741.8 1085.13 1706.08 1068.91 1662.23L1063.22 1646.87L1095.92 1641.8" stroke="#FF6F5E" stroke-width="0.23" stroke-miterlimit="10"/>
</g>
<path d="M1549.86 1541.92C1549.86 1541.92 1570.43 1451.5 1579.06 1457.19C1587.7 1462.88 1578.17 1502.3 1578.04 1509.22C1577.49 1529.79 1657.9 1428.88 1663.66 1434.57C1669.41 1440.26 1641.58 1489.41 1641.58 1489.41C1641.58 1489.41 1662.15 1440.19 1667.63 1444.85C1673.12 1449.52 1661.12 1497.5 1661.12 1497.5C1661.12 1497.5 1672.98 1453.08 1675.24 1459.32C1677.5 1465.56 1670.1 1508.54 1670.1 1508.54C1670.1 1508.54 1675.45 1478.17 1673.66 1487.97C1661.32 1554.19 1594.35 1609.03 1594.35 1609.03C1594.35 1609.03 1434.49 1733.38 1345.78 1750.59C1243.44 1770.47 1139.17 1728.31 1096.12 1641.66L1003.78 1455.75C983.218 1398.99 1015.78 1333.18 1076.65 1308.85C1137.46 1284.51 1176.6 1330.78 1197.23 1387.61L1279.5 1557.55C1305.27 1610.75 1398.36 1611.98 1457.18 1585.93L1544.1 1547.34C1546.56 1546.23 1548.51 1544.25 1549.59 1541.78L1549.86 1541.92Z" fill="#FFBE9E"/>
<path d="M1209.02 1581.61L1126.15 1686.98C1109.28 1668.03 1096.41 1645.88 1088.31 1621.85L1209.02 1581.61Z" fill="#D47770"/>
<path d="M1039.77 1659.49L989.593 1449.52C977.528 1387.07 1009.54 1330.72 1065.75 1309.19C1092.77 1298.89 1122.78 1299.73 1149.18 1311.52C1175.58 1323.32 1196.21 1345.12 1206.56 1372.12L1290.19 1541.24" fill="#234D66"/>
<path d="M1039.77 1659.49L989.593 1449.52C977.528 1387.07 1009.54 1330.72 1065.75 1309.19C1092.77 1298.89 1122.78 1299.73 1149.18 1311.52C1175.58 1323.32 1196.21 1345.12 1206.56 1372.12L1290.19 1541.24" stroke="#234D66" stroke-width="0.23" stroke-miterlimit="10"/>
<path d="M1063.15 1646.87L1008.31 1438.07C994.597 1376.71 1022.02 1323.24 1073.22 1304.74C1124.64 1286.23 1184.48 1316.39 1206.9 1372.05L1291.77 1540.48C1291.77 1540.48 1085.5 1640.57 1063.15 1646.87Z" fill="#4092C1" stroke="#4092C1" stroke-width="0.22" stroke-miterlimit="10"/>
<path d="M1038.61 1132.54C1038.29 1133.91 1037.68 1135.2 1036.82 1136.31C1035.95 1137.42 1034.86 1138.33 1033.6 1138.98C1023.94 1142.47 1009.13 1140.08 1014.2 1160.44C1019.62 1182.51 1043.27 1170.86 1046.63 1173.73C1053.48 1179.7 1068.15 1196.84 1093.17 1199.65C1108.39 1201.36 1137.46 1203.62 1148.01 1185.39C1158.57 1167.15 1167.89 1148.64 1125.19 1053.08C1125.19 1053.08 1114.08 1043.69 1105.44 1049.93C1096.81 1056.17 1077.2 1047.74 1065.27 1048.08C1055.54 1048.08 1043.41 1049.04 1042.03 1082.7C1041.35 1098.19 1039.57 1119.58 1038.61 1132.54Z" fill="#FFBE9E"/>
<path d="M1151.65 1130.41C1139.81 1136.15 1127.52 1140.92 1114.9 1144.67C1114.9 1144.67 1135.06 1159.34 1144.45 1152.41C1153.84 1145.49 1151.65 1130.41 1151.65 1130.41Z" fill="white"/>
<path d="M1095.16 1091.13C1092.15 1095.65 1092.83 1079.48 1097.9 1075.77C1100.12 1074.05 1102.92 1073.26 1105.71 1073.6C1108.5 1073.93 1111.04 1075.36 1112.78 1077.56C1105.52 1079.92 1099.3 1084.72 1095.16 1091.13Z" fill="#00263B"/>
<path d="M1131.08 1067C1126.15 1066.11 1123.75 1072.14 1124.23 1075.71C1124.23 1075.71 1131.9 1071.94 1134.85 1074.82" fill="#00263B"/>
<path d="M1114.36 1106.01C1115.04 1108.82 1116.76 1110.87 1118.19 1110.53C1119.63 1110.19 1120.11 1107.58 1119.36 1104.7C1118.61 1101.82 1116.96 1099.84 1115.52 1100.18C1114.08 1100.52 1113.6 1103.13 1114.36 1106.01Z" fill="#00263B"/>
<path d="M1133.69 1097.85C1134.37 1100.59 1136.02 1102.58 1137.39 1102.24C1138.76 1101.89 1139.24 1099.42 1138.49 1096.68C1137.73 1093.94 1136.22 1091.95 1134.85 1092.3C1133.48 1092.64 1133 1094.9 1133.69 1097.85Z" fill="#00263B"/>
<path d="M1037.24 1143.37C1031.75 1143.37 1025.38 1147.55 1025.51 1153.03C1026.02 1155.89 1027.52 1158.47 1029.76 1160.32C1032 1162.16 1034.82 1163.15 1037.72 1163.11" fill="#D47770"/>
<path d="M1131.7 1107.72L1136.02 1128.28L1145.96 1123.97C1146.38 1123.79 1146.75 1123.51 1147.02 1123.15C1147.3 1122.79 1147.48 1122.37 1147.54 1121.92C1147.61 1121.46 1147.55 1121.01 1147.38 1120.58C1147.21 1120.16 1146.93 1119.79 1146.57 1119.51L1131.7 1107.72Z" fill="#D47770"/>
<path d="M1459.37 1381.99C1442.3 1417.36 1342.84 1602.93 1247.89 1653.45C1160.97 1699.79 1022.22 1697.19 994.254 1791.65C990.964 1802.9 988.77 1815.85 995.42 1825.52C998.736 1829.38 1002.82 1832.52 1007.41 1834.72C1012 1836.93 1017 1838.16 1022.09 1838.34C1055.5 1841.82 1089 1832.73 1116.07 1812.84" stroke="#EB4D55" stroke-width="0.52" stroke-miterlimit="10"/>
<path d="M1515.59 1663.19C1524.37 1674.21 1534.74 1683.87 1546.36 1691.84C1549.97 1694.9 1554.52 1696.62 1559.25 1696.71C1562.6 1696.15 1565.67 1694.51 1567.99 1692.03C1570.31 1689.55 1571.74 1686.38 1572.07 1683C1572.63 1676.29 1571.48 1669.54 1568.71 1663.39C1552.12 1618.63 1520.38 1580.45 1505.51 1535.07C1503.91 1531.33 1503.5 1527.19 1504.34 1523.21C1507.29 1513.82 1521.28 1513.68 1529.23 1519.44C1537.18 1525.2 1542.05 1534.38 1549.79 1540" stroke="#EB4D55" stroke-width="0.52" stroke-miterlimit="10"/>
<path d="M1606.14 1597.79C1669.62 1682.66 1780.33 1750.93 1887.75 1790.35C1952.53 1814.14 2024.85 1833.33 2068.17 1881.32C2074.62 1888.17 2078.94 1901.13 2069.34 1904.49C2066.33 1905.28 2063.17 1905.28 2060.15 1904.49C2047.61 1902.29 2002.64 1887.69 1992.91 1880.43" stroke="#EB4D55" stroke-width="0.56" stroke-miterlimit="10"/>
<path d="M1142.26 467.041C1121.72 457.877 1098.52 456.659 1077.14 463.625C1055.77 470.591 1037.73 485.243 1026.54 504.745C1018.85 518.354 1014.85 533.736 1014.94 549.367C1015.02 564.997 1019.19 580.335 1027.02 593.861L1005.7 636.088C1005.53 636.47 1005.47 636.894 1005.53 637.309C1005.59 637.724 1005.77 638.113 1006.04 638.431C1006.31 638.748 1006.67 638.98 1007.08 639.1C1007.48 639.219 1007.91 639.221 1008.31 639.105L1054.99 623.749C1058.02 625.801 1061.18 627.655 1064.45 629.302C1075.14 634.747 1086.8 638 1098.76 638.871C1110.72 639.742 1122.73 638.212 1134.09 634.371C1145.45 630.531 1155.93 624.457 1164.91 616.508C1173.89 608.559 1181.19 598.894 1186.37 588.083C1191.56 577.272 1194.54 565.533 1195.12 553.555C1195.71 541.578 1193.89 529.604 1189.78 518.339C1185.67 507.074 1179.35 496.745 1171.19 487.959C1163.02 479.173 1153.19 472.107 1142.26 467.179V467.041Z" fill="#F8EEEE" stroke="#F8EEEE" stroke-width="1.06" stroke-miterlimit="10"/>
<path d="M1070.69 563.013C1076.14 563.013 1080.56 558.593 1080.56 553.142C1080.56 547.69 1076.14 543.27 1070.69 543.27C1065.24 543.27 1060.82 547.69 1060.82 553.142C1060.82 558.593 1065.24 563.013 1070.69 563.013Z" fill="#00263B"/>
<path d="M1114.84 553.347C1114.84 555.3 1114.26 557.208 1113.17 558.831C1112.09 560.455 1110.55 561.72 1108.74 562.467C1106.94 563.214 1104.95 563.41 1103.04 563.029C1101.12 562.648 1099.37 561.708 1097.98 560.327C1096.6 558.947 1095.66 557.188 1095.28 555.273C1094.9 553.358 1095.1 551.373 1095.84 549.57C1096.59 547.766 1097.86 546.224 1099.48 545.14C1101.1 544.055 1103.01 543.476 1104.96 543.476C1107.58 543.476 1110.09 544.516 1111.94 546.367C1113.8 548.218 1114.84 550.729 1114.84 553.347Z" fill="#00263B"/>
<path d="M1149.18 553.347C1149.18 555.3 1148.6 557.208 1147.52 558.831C1146.43 560.455 1144.89 561.72 1143.09 562.467C1141.28 563.214 1139.3 563.41 1137.38 563.029C1135.47 562.648 1133.71 561.708 1132.33 560.327C1130.95 558.947 1130.01 557.188 1129.63 555.273C1129.25 553.358 1129.44 551.373 1130.19 549.57C1130.94 547.766 1132.2 546.224 1133.82 545.14C1135.45 544.055 1137.36 543.476 1139.31 543.476C1141.93 543.476 1144.44 544.516 1146.29 546.367C1148.14 548.218 1149.18 550.729 1149.18 553.347V553.347Z" fill="#00263B"/>
<path d="M719.159 1355.53C768.831 1355.53 809.098 1315.26 809.098 1265.59C809.098 1215.92 768.831 1175.65 719.159 1175.65C669.487 1175.65 629.22 1215.92 629.22 1265.59C629.22 1315.26 669.487 1355.53 719.159 1355.53Z" fill="#F8EEEE" stroke="#F8EEEE" stroke-width="1.06" stroke-miterlimit="10"/>
<path d="M693.795 1240.3C700.651 1233.44 714.361 1240.3 719.091 1246.67C724.026 1240.3 737.394 1232.96 744.455 1240.3C750.213 1245.51 749.116 1254.01 746.306 1261.34C740.864 1273.88 731.147 1284.09 718.885 1290.13V1290.13C706.569 1284.16 696.829 1273.94 691.465 1261.34C689.134 1253.73 688.037 1245.71 693.795 1240.3Z" fill="#EB4D55"/>
<path opacity="0.35" d="M909.8 1040.95H281.05C273.778 1040.95 266.803 1038.06 261.661 1032.92C256.518 1027.78 253.63 1020.8 253.63 1013.53V565.275C253.63 558.003 256.518 551.028 261.661 545.886C266.803 540.744 273.778 537.855 281.05 537.855H816.776C824.049 537.855 831.023 540.744 836.165 545.886C841.308 551.028 844.197 558.003 844.197 565.275V973.085L909.8 1040.95Z" stroke="#78C7E3" stroke-width="0.53" stroke-miterlimit="10"/>
<path opacity="0.48" d="M774.699 907.145C791.304 836.182 747.238 765.194 676.275 748.589C605.312 731.984 534.324 776.05 517.719 847.013C501.114 917.976 545.18 988.964 616.143 1005.57C687.106 1022.17 758.094 978.108 774.699 907.145Z" fill="#8CD9F5"/>
<path d="M641.628 801.228C641.628 801.228 702.707 805.615 729.168 856.617C755.628 907.619 847.692 1069.13 851.874 1077.42C856.055 1085.71 831.788 1191.15 713.881 1167.36L679.605 1071.73L686.46 1170.86C686.46 1170.86 667.197 1187.99 623.668 1170.86C580.138 1153.72 546.548 781.005 641.628 801.228Z" fill="#00263B"/>
<path d="M620.514 876.566C620.514 876.566 614.139 953.274 612.836 958.827C620.312 966.097 630.043 970.603 640.424 971.6C650.805 972.597 661.216 970.026 669.939 964.311C669.939 964.311 665.415 946.077 658.011 899.462L620.514 876.566Z" fill="#FFBE9E" stroke="#FFBE9E" stroke-width="0.62" stroke-linecap="round" stroke-linejoin="round"/>
<path d="M683.855 867.037L670.967 865.392L672.75 850.996L685.637 852.641C686.585 852.751 687.502 853.049 688.334 853.516C689.166 853.984 689.897 854.613 690.484 855.365C691.071 856.118 691.502 856.98 691.753 857.901C692.004 858.822 692.068 859.784 691.944 860.73C691.704 862.638 690.718 864.372 689.202 865.554C687.686 866.737 685.763 867.27 683.855 867.037V867.037Z" fill="#FFBE9E" stroke="#FFBE9E" stroke-width="0.61" stroke-miterlimit="10"/>
<path d="M597.001 859.633L609.957 860.593L608.929 875.057L595.904 874.097C594.924 874.106 593.953 873.904 593.057 873.505C592.162 873.106 591.362 872.52 590.712 871.786C590.062 871.051 589.578 870.186 589.291 869.249C589.004 868.311 588.921 867.323 589.049 866.351C589.108 865.38 589.364 864.431 589.8 863.561C590.237 862.692 590.845 861.92 591.588 861.292C592.331 860.664 593.194 860.193 594.125 859.908C595.055 859.623 596.033 859.529 597.001 859.633V859.633Z" fill="#FFBE9E" stroke="#FFBE9E" stroke-width="0.61" stroke-miterlimit="10"/>
<path d="M596.11 863.404L601.457 863.815L601.045 869.779H595.698C594.904 869.709 594.168 869.334 593.644 868.734C593.121 868.133 592.849 867.353 592.888 866.557V866.557C592.878 866.134 592.955 865.714 593.115 865.323C593.274 864.931 593.512 864.576 593.814 864.281C594.116 863.985 594.476 863.755 594.871 863.604C595.266 863.453 595.687 863.385 596.11 863.404V863.404Z" fill="#D46A4C" stroke="#D46A4C" stroke-width="0.6" stroke-miterlimit="10"/>
<path d="M685.363 856.686L680.016 855.932L679.262 861.827L684.609 862.581C685.4 862.678 686.196 862.459 686.826 861.971C687.455 861.483 687.866 860.766 687.968 859.976V859.976C688.046 859.197 687.818 858.418 687.332 857.804C686.846 857.189 686.14 856.789 685.363 856.686V856.686Z" fill="#D46A4C" stroke="#D46A4C" stroke-width="0.6" stroke-miterlimit="10"/>
<path d="M638.132 825.495C653.967 825.015 665.004 845.512 665.552 870.601V872.521C666.306 897.542 651.842 925.237 638.132 925.305H637.583C627.027 924.551 613.659 900.147 612.905 875.126L610.712 871.767C610.163 846.54 622.022 825.975 638.132 825.495Z" fill="#D47770"/>
<path d="M642.793 816.652C666.923 817.406 682.278 837.217 681.593 860.867V862.65C680.907 886.163 661.027 906.591 640.942 905.7C624.901 904.26 597.892 883.215 598.577 859.702V857.92C598.745 852.299 600.025 846.767 602.343 841.643C604.661 836.519 607.971 831.905 612.082 828.068C616.193 824.231 621.024 821.247 626.295 819.287C631.566 817.328 637.173 816.432 642.793 816.652Z" fill="#FFBE9E" stroke="#FFBE9E" stroke-width="0.6" stroke-miterlimit="10"/>
<path d="M641.902 887.054H640.12C637.102 886.726 634.338 885.213 632.435 882.848C630.533 880.483 629.648 877.458 629.974 874.44L654.447 877.045C654.086 880.025 652.568 882.744 650.222 884.616C647.876 886.488 644.888 887.363 641.902 887.054Z" fill="white"/>
<path d="M655.818 861.004C656.074 861.596 656.088 862.265 655.858 862.867C655.627 863.469 655.17 863.957 654.584 864.226C653.982 864.485 653.304 864.501 652.691 864.271C652.077 864.041 651.577 863.583 651.294 862.992C651.042 862.392 651.038 861.717 651.282 861.113C651.526 860.51 651.998 860.027 652.596 859.77C653.188 859.514 653.856 859.5 654.459 859.731C655.061 859.961 655.549 860.419 655.818 861.004V861.004Z" fill="#162447"/>
<path d="M636.144 859.497C636.403 860.098 636.419 860.777 636.189 861.39C635.959 862.003 635.501 862.504 634.91 862.787C634.614 862.921 634.294 862.994 633.969 863.001C633.644 863.007 633.321 862.948 633.02 862.826C632.719 862.705 632.445 862.523 632.216 862.292C631.987 862.061 631.808 861.787 631.688 861.485C631.532 860.916 631.584 860.31 631.836 859.776C632.089 859.243 632.523 858.817 633.062 858.577C633.601 858.336 634.208 858.297 634.773 858.466C635.339 858.634 635.825 859 636.144 859.497V859.497Z" fill="#162447"/>
<path d="M645.946 871.287L639.502 870.807C639.315 870.797 639.133 870.739 638.974 870.639C638.815 870.539 638.685 870.399 638.596 870.234C638.506 870.069 638.461 869.884 638.463 869.696C638.466 869.508 638.517 869.324 638.611 869.162L642.038 862.924C642.143 862.754 642.289 862.613 642.463 862.515C642.637 862.418 642.833 862.367 643.032 862.367C643.232 862.367 643.428 862.418 643.602 862.515C643.776 862.613 643.922 862.754 644.026 862.924L647.043 869.779C647.113 869.952 647.139 870.14 647.116 870.325C647.094 870.511 647.024 870.687 646.914 870.838C646.804 870.989 646.658 871.11 646.488 871.188C646.319 871.267 646.132 871.301 645.946 871.287V871.287Z" fill="#E88A6F"/>
<path d="M661.988 854.972C663.701 856.206 661.233 850.722 658.903 850.036C657.884 849.652 656.754 849.68 655.756 850.116C654.757 850.551 653.968 851.359 653.556 852.367C656.581 852.25 659.555 853.169 661.988 854.972V854.972Z" fill="#162447"/>
<path d="M626.821 851.27C624.901 852.23 628.397 847.294 630.797 847.089C631.887 846.91 633.004 847.17 633.903 847.812C634.802 848.455 635.41 849.427 635.595 850.516C632.671 849.741 629.569 850.008 626.821 851.27V851.27Z" fill="#162447"/>
<path d="M625.107 807.877C661.782 794.853 707.368 828.443 730.402 855.109C748.423 877.373 764.891 900.85 779.69 925.374C809.509 971.509 836.93 1019.49 868.463 1063.98C870.726 1067.14 875.935 1063.98 873.673 1060.97C834.462 1005.78 801.763 946.145 763.58 890.276C735.2 848.665 681.319 781.554 623.462 802.051C619.829 803.353 621.405 808.906 625.107 807.877V807.877Z" fill="#00263B"/>
<path d="M596.11 857.371C596.11 858.194 623.53 826.043 626.067 816.72C628.603 807.398 597.001 820.696 596.11 857.371Z" fill="#162447"/>
<path d="M626.067 816.721C640.171 834.708 660.582 846.666 683.17 850.174C683.17 850.174 678.303 789.574 626.067 816.721Z" fill="#162447"/>
<path opacity="0.37" d="M673.435 876.566C673.435 878.26 672.933 879.917 671.991 881.326C671.05 882.735 669.711 883.834 668.146 884.482C666.58 885.131 664.857 885.3 663.195 884.97C661.532 884.639 660.006 883.823 658.807 882.625C657.609 881.426 656.793 879.9 656.462 878.237C656.132 876.575 656.301 874.852 656.95 873.286C657.598 871.721 658.697 870.382 660.106 869.441C661.515 868.499 663.172 867.997 664.866 867.997C667.139 867.997 669.318 868.9 670.925 870.506C672.532 872.113 673.435 874.293 673.435 876.566Z" fill="#FF6F5E" stroke="#FF6F5E" stroke-width="0.15" stroke-miterlimit="10"/>
<path opacity="0.37" d="M615.715 883.009C620.448 883.009 624.284 879.173 624.284 874.441C624.284 869.708 620.448 865.872 615.715 865.872C610.983 865.872 607.147 869.708 607.147 874.441C607.147 879.173 610.983 883.009 615.715 883.009Z" fill="#FF6F5E" stroke="#FF6F5E" stroke-width="0.15" stroke-miterlimit="10"/>
<path d="M612.562 932.16C612.562 932.16 631.619 981.791 666.923 935.657C666.923 935.657 719.913 911.321 738.97 960.952C758.027 1010.58 766.048 1034.3 766.048 1034.3L538.321 1037.18C538.321 1037.18 542.64 905.837 587.404 910.156C587.404 910.156 603.856 908.442 612.562 932.16Z" fill="#FF6F5E" stroke="#FF6F5E" stroke-width="0.15" stroke-miterlimit="10"/>
<path d="M485.058 728.153H614.551L646.564 762.428V619.636C646.564 616.909 645.48 614.294 643.552 612.365C641.624 610.437 639.008 609.354 636.281 609.354H485.058C483.701 609.345 482.357 609.604 481.102 610.117C479.846 610.629 478.704 611.385 477.742 612.341C476.78 613.297 476.017 614.433 475.496 615.685C474.975 616.937 474.706 618.28 474.706 619.636V717.87C474.706 719.226 474.975 720.569 475.496 721.821C476.017 723.073 476.78 724.209 477.742 725.165C478.704 726.121 479.846 726.877 481.102 727.39C482.357 727.902 483.701 728.162 485.058 728.153V728.153Z" fill="#F8EEEE" stroke="#F8EEEE" stroke-width="1.06" stroke-miterlimit="10"/>
<path d="M532.015 645.274C539.761 637.391 554.568 645.274 559.983 652.129C565.399 645.274 580.549 637.185 587.952 645.274C594.328 651.101 593.162 660.15 590.009 668.582C584.09 682.41 573.448 693.683 559.983 700.389C546.449 693.778 535.778 682.474 529.958 668.582C526.805 660.15 525.639 651.101 532.015 645.274Z" fill="#EB4D55"/>
<path d="M464.903 873.755L353.919 874.509C352.197 874.527 350.489 874.204 348.893 873.557C347.297 872.911 345.845 871.954 344.621 870.743C343.397 869.532 342.425 868.09 341.762 866.501C341.099 864.911 340.757 863.206 340.757 861.484V861.484C340.739 859.759 341.062 858.047 341.708 856.447C342.354 854.848 343.309 853.391 344.519 852.162C345.73 850.932 347.171 849.954 348.761 849.283C350.35 848.613 352.057 848.263 353.782 848.254L464.766 847.568C466.486 847.559 468.19 847.889 469.782 848.539C471.374 849.189 472.822 850.145 474.045 851.355C475.267 852.564 476.239 854.003 476.905 855.588C477.571 857.173 477.919 858.874 477.928 860.593V860.593C477.946 862.315 477.623 864.024 476.976 865.62C476.33 867.216 475.373 868.668 474.162 869.892C472.951 871.116 471.509 872.087 469.92 872.751C468.33 873.414 466.625 873.755 464.903 873.755V873.755Z" fill="#FF8B91"/>
<path d="M464.972 933.6L353.988 934.354C350.509 934.372 347.164 933.012 344.685 930.572C342.206 928.131 340.794 924.808 340.757 921.329V921.329C340.757 917.862 342.125 914.535 344.564 912.071C347.002 909.606 350.315 908.204 353.782 908.168L464.766 907.413C466.491 907.395 468.203 907.718 469.803 908.364C471.403 909.01 472.859 909.965 474.089 911.176C475.318 912.386 476.297 913.827 476.967 915.417C477.638 917.006 477.988 918.713 477.996 920.438V920.438C478.005 922.158 477.676 923.862 477.026 925.454C476.376 927.046 475.42 928.494 474.21 929.717C473.001 930.939 471.562 931.911 469.977 932.577C468.392 933.243 466.691 933.591 464.972 933.6V933.6Z" fill="#FF8B91"/>
<path d="M1703.89 434C1753.57 434 1793.83 393.733 1793.83 344.061C1793.83 294.389 1753.57 254.122 1703.89 254.122C1654.22 254.122 1613.96 294.389 1613.96 344.061C1613.96 393.733 1654.22 434 1703.89 434Z" fill="#F8EEEE" stroke="#F8EEEE" stroke-width="1.06" stroke-miterlimit="10"/>
<path d="M1678.6 318.766C1685.46 311.91 1699.17 318.766 1703.9 325.141C1708.76 318.834 1722.2 311.431 1729.19 318.766C1734.95 324.044 1733.92 332.476 1731.04 339.879C1725.66 352.443 1715.92 362.642 1703.62 368.602V368.602C1691.29 362.688 1681.54 352.474 1676.2 339.879C1673.94 332.27 1672.84 324.044 1678.6 318.766Z" fill="#EB4D55"/>
<path d="M2828.41 584.812C2807.87 575.637 2784.65 574.422 2763.27 581.402C2741.89 588.382 2723.86 603.059 2712.69 622.584C2705 636.193 2701 651.575 2701.09 667.206C2701.17 682.837 2705.34 698.175 2713.17 711.7L2691.92 753.928C2691.71 754.297 2691.61 754.725 2691.65 755.152C2691.69 755.578 2691.86 755.981 2692.14 756.306C2692.42 756.63 2692.79 756.86 2693.21 756.962C2693.62 757.064 2694.06 757.034 2694.46 756.875L2741.14 741.52C2744.19 743.569 2747.35 745.446 2750.6 747.141C2772.11 757.459 2796.83 758.81 2819.34 750.897C2841.84 742.984 2860.28 726.456 2870.6 704.948C2880.92 683.44 2882.27 658.714 2874.36 636.21C2866.44 613.706 2849.91 595.267 2828.41 584.949V584.812Z" fill="#F8EEEE" stroke="#F8EEEE" stroke-width="1.06" stroke-miterlimit="10"/>
<path d="M2766.71 670.912C2766.71 672.865 2766.13 674.773 2765.05 676.397C2763.96 678.02 2762.42 679.285 2760.62 680.032C2758.81 680.78 2756.83 680.975 2754.91 680.594C2753 680.213 2751.24 679.273 2749.86 677.893C2748.48 676.512 2747.54 674.753 2747.16 672.838C2746.78 670.923 2746.97 668.939 2747.72 667.135C2748.47 665.331 2749.73 663.789 2751.35 662.705C2752.98 661.62 2754.89 661.041 2756.84 661.041C2759.45 661.059 2761.95 662.105 2763.8 663.952C2765.65 665.8 2766.69 668.3 2766.71 670.912V670.912Z" fill="#00263B"/>
<path d="M2800.98 670.912C2800.98 672.867 2800.4 674.779 2799.32 676.404C2798.23 678.028 2796.68 679.294 2794.88 680.039C2793.07 680.784 2791.08 680.975 2789.16 680.589C2787.25 680.202 2785.49 679.255 2784.11 677.868C2782.73 676.48 2781.8 674.715 2781.42 672.796C2781.05 670.876 2781.26 668.889 2782.01 667.087C2782.77 665.284 2784.05 663.748 2785.68 662.671C2787.31 661.595 2789.23 661.027 2791.18 661.041C2793.79 661.059 2796.28 662.107 2798.12 663.956C2799.95 665.806 2800.99 668.306 2800.98 670.912V670.912Z" fill="#00263B"/>
<path d="M2835.33 670.912C2835.33 672.865 2834.75 674.773 2833.67 676.397C2832.58 678.02 2831.04 679.285 2829.24 680.032C2827.43 680.78 2825.45 680.975 2823.53 680.594C2821.62 680.213 2819.86 679.273 2818.48 677.893C2817.1 676.512 2816.16 674.753 2815.78 672.838C2815.4 670.923 2815.59 668.939 2816.34 667.135C2817.09 665.331 2818.35 663.789 2819.97 662.705C2821.6 661.62 2823.51 661.041 2825.46 661.041C2828.08 661.041 2830.59 662.081 2832.44 663.932C2834.29 665.784 2835.33 668.294 2835.33 670.912Z" fill="#00263B"/>
<path opacity="0.35" d="M2033.28 550.742V13.3707C2033.28 0.414562 2048.43 -10.0738 2067.15 -10.0738H2620.22C2638.93 -10.0738 2654.08 0.414562 2654.08 13.3707V471.086C2654.08 484.042 2638.93 494.53 2620.22 494.53H2117.05L2033.28 550.742Z" stroke="#78C7E3" stroke-width="0.53" stroke-miterlimit="10"/>
<path opacity="0.48" d="M2213.16 426.185C2286.99 426.185 2346.84 369.222 2346.84 298.954C2346.84 228.687 2286.99 171.724 2213.16 171.724C2139.33 171.724 2079.49 228.687 2079.49 298.954C2079.49 369.222 2139.33 426.185 2213.16 426.185Z" fill="#8CD9F5"/>
<path d="M2254.63 278.595L2243.32 279.76L2242.71 266.872L2254.02 265.638C2254.86 265.511 2255.72 265.566 2256.54 265.799C2257.36 266.033 2258.12 266.439 2258.77 266.991C2259.42 267.543 2259.94 268.229 2260.31 269C2260.67 269.772 2260.86 270.613 2260.87 271.465C2260.95 273.228 2260.34 274.953 2259.18 276.281C2258.02 277.609 2256.39 278.438 2254.63 278.595Z" fill="#FFBE9E" stroke="#FFBE9E" stroke-width="0.53" stroke-miterlimit="10"/>
<path d="M2166.82 279.966L2177.93 277.224L2180.19 289.906L2169.08 292.579C2168.28 292.78 2167.44 292.813 2166.63 292.677C2165.81 292.542 2165.03 292.239 2164.34 291.789C2163.64 291.339 2163.05 290.751 2162.59 290.061C2162.13 289.372 2161.82 288.595 2161.68 287.781V287.781C2161.39 286.069 2161.76 284.31 2162.71 282.86C2163.66 281.409 2165.13 280.375 2166.82 279.966Z" fill="#FFBE9E" stroke="#FFBE9E" stroke-width="0.53" stroke-miterlimit="10"/>
<path d="M2167.99 283.188L2172.58 282.022L2173.54 287.232L2168.95 288.397C2168.61 288.478 2168.27 288.49 2167.93 288.432C2167.59 288.375 2167.27 288.249 2166.98 288.064C2166.69 287.878 2166.44 287.635 2166.25 287.351C2166.06 287.067 2165.93 286.746 2165.86 286.409V286.409C2165.75 285.705 2165.91 284.985 2166.3 284.39C2166.7 283.795 2167.3 283.366 2167.99 283.188V283.188Z" fill="#D47770" stroke="#D47770" stroke-width="0.53" stroke-miterlimit="10"/>
<path d="M2254.36 269.82L2249.7 270.231V275.578L2254.43 275.099C2254.78 275.073 2255.12 274.977 2255.44 274.818C2255.75 274.659 2256.03 274.44 2256.26 274.172C2256.49 273.905 2256.67 273.594 2256.77 273.259C2256.88 272.924 2256.92 272.571 2256.9 272.219V272.219C2256.9 271.893 2256.83 271.569 2256.7 271.268C2256.57 270.968 2256.38 270.697 2256.15 270.473C2255.91 270.248 2255.63 270.074 2255.32 269.962C2255.01 269.85 2254.69 269.801 2254.36 269.82Z" fill="#D47770" stroke="#D47770" stroke-width="0.53" stroke-miterlimit="10"/>
<path d="M2238.04 312.116L2245.72 376.965C2245.72 376.965 2211.45 428.242 2172.24 377.514L2183.55 312.87L2238.04 312.116Z" fill="#FFBE9E"/>
<path d="M2235.37 265.433L2238.8 320.274C2238.8 320.274 2212.82 375.115 2181.7 320.274L2197.6 263.376L2235.37 265.433Z" fill="#D47770"/>
<path d="M2210.35 330.282C2181.63 330.282 2172.85 308.483 2172.92 286.889V285.244C2172.92 263.651 2188.82 239.452 2209.87 238.287C2230.91 237.19 2249.29 259.606 2249.15 281.2V282.845C2249.08 304.438 2239.14 330.077 2210.35 330.282Z" fill="#FFBE9E" stroke="#FFBE9E" stroke-width="0.53" stroke-miterlimit="10"/>
<path d="M2212.41 313.419C2205 313.898 2198.7 309.991 2198.7 304.713V303.959L2225.64 302.382V303.136C2225.84 308.483 2219.88 313.419 2212.41 313.419Z" fill="white"/>
<path d="M2226.39 233.214C2232.08 232.614 2237.8 233.942 2242.64 236.984C2244.82 240.08 2246.23 243.653 2246.75 247.404C2246.75 251.174 2248.05 267.01 2247.57 267.147C2240.79 259.093 2234.51 250.622 2228.79 241.783" fill="#00263B"/>
<path d="M2193.21 235.682C2191.8 234.038 2189.86 232.929 2187.73 232.542C2185.59 232.155 2183.39 232.513 2181.49 233.557C2176.21 235.974 2172.08 240.35 2169.97 245.759C2167.89 251.119 2167.2 256.924 2167.99 262.622C2168.33 265.296 2168.94 279.006 2171.55 279.28C2172.99 279.28 2183.41 254.191 2186.43 247.404" fill="#00263B"/>
<path d="M2203.56 284.559C2203.36 285.09 2202.97 285.525 2202.46 285.779C2201.95 286.033 2201.37 286.087 2200.82 285.93C2200.55 285.851 2200.3 285.719 2200.08 285.542C2199.86 285.364 2199.67 285.144 2199.54 284.895C2199.41 284.646 2199.32 284.373 2199.3 284.092C2199.27 283.81 2199.3 283.526 2199.38 283.256C2199.58 282.727 2199.98 282.297 2200.49 282.054C2201 281.811 2201.59 281.775 2202.12 281.954C2202.39 282.024 2202.65 282.149 2202.86 282.32C2203.08 282.491 2203.27 282.704 2203.4 282.948C2203.54 283.191 2203.62 283.46 2203.65 283.737C2203.68 284.013 2203.65 284.293 2203.56 284.559V284.559Z" fill="#00263B"/>
<path d="M2223.37 282.982C2223.16 283.518 2222.75 283.955 2222.23 284.209C2221.71 284.462 2221.12 284.513 2220.56 284.353C2220.29 284.276 2220.04 284.144 2219.82 283.965C2219.61 283.786 2219.43 283.564 2219.3 283.314C2219.17 283.063 2219.09 282.789 2219.08 282.508C2219.06 282.226 2219.1 281.945 2219.19 281.679C2219.39 281.151 2219.79 280.72 2220.3 280.477C2220.81 280.235 2221.4 280.199 2221.94 280.377C2222.2 280.448 2222.46 280.572 2222.68 280.743C2222.9 280.914 2223.08 281.128 2223.21 281.371C2223.35 281.615 2223.43 281.883 2223.46 282.16C2223.49 282.437 2223.46 282.716 2223.37 282.982Z" fill="#00263B"/>
<path d="M2215.97 298.817H2208.16C2207.94 298.834 2207.73 298.796 2207.54 298.707C2207.35 298.618 2207.18 298.481 2207.06 298.308C2206.93 298.136 2206.85 297.934 2206.83 297.723C2206.81 297.512 2206.84 297.299 2206.92 297.103L2210.21 289.563C2210.32 289.346 2210.49 289.164 2210.69 289.037C2210.9 288.909 2211.14 288.842 2211.38 288.842C2211.62 288.842 2211.86 288.909 2212.06 289.037C2212.27 289.164 2212.43 289.346 2212.54 289.563L2217.07 296.829C2217.19 297.026 2217.26 297.251 2217.26 297.482C2217.27 297.713 2217.21 297.942 2217.1 298.144C2216.99 298.346 2216.82 298.515 2216.63 298.634C2216.43 298.752 2216.2 298.815 2215.97 298.817V298.817Z" fill="#D47770"/>
<path d="M2191.36 274.893C2189.17 276.675 2192.18 269.409 2195.27 268.381C2196.62 267.825 2198.13 267.799 2199.51 268.307C2200.88 268.815 2202.01 269.82 2202.67 271.123C2198.59 271.092 2194.61 272.418 2191.36 274.893Z" fill="#00263B"/>
<path d="M2227.63 270.094C2230.09 271.397 2225.77 264.816 2222.48 264.336C2221.05 263.977 2219.53 264.192 2218.25 264.934C2216.97 265.677 2216.03 266.888 2215.63 268.312C2219.71 267.553 2223.94 268.18 2227.63 270.094Z" fill="#00263B"/>
<path d="M2172.17 366.683C2172.17 366.683 2198.56 422.826 2241.88 370.727C2244.95 361.127 2251.29 352.909 2259.8 347.509C2268.3 342.108 2278.44 339.869 2288.43 341.182C2325.79 344.472 2374.12 421.798 2374.12 421.798C2374.12 421.798 2218.78 524.282 2215.08 522.911C2211.38 521.54 2085.59 436.811 2085.59 436.811C2085.59 436.811 2090.59 353.247 2172.17 366.683Z" fill="#4092C1" stroke="#4092C1" stroke-width="0.13" stroke-miterlimit="10"/>
<path d="M2185.6 249.255C2185.6 249.255 2190.68 240.892 2195.82 244.593C2213.85 257.755 2220.77 252.477 2227.69 245.073C2234.62 237.67 2233.93 248.912 2234.55 247.884C2235.17 246.856 2247.23 227.318 2237.22 213.608C2227.21 199.898 2206.79 199.898 2191.5 216.693C2176.21 233.488 2177.86 235.682 2185.6 249.255Z" fill="#00263B" stroke="#162447" stroke-width="0.13" stroke-miterlimit="10"/>
<path d="M2188.21 211.826C2190.83 210.379 2193.91 209.985 2196.81 210.724C2199.71 211.462 2202.22 213.278 2203.84 215.802C2204.6 217.033 2205.1 218.407 2205.32 219.839C2205.53 221.272 2205.45 222.732 2205.07 224.132C2204.7 225.532 2204.05 226.84 2203.15 227.978C2202.26 229.115 2201.14 230.057 2199.86 230.746C2197.24 232.193 2194.16 232.587 2191.26 231.848C2188.36 231.11 2185.85 229.294 2184.23 226.77C2183.47 225.539 2182.97 224.165 2182.75 222.733C2182.54 221.3 2182.62 219.839 2182.99 218.44C2183.37 217.04 2184.02 215.732 2184.92 214.594C2185.81 213.457 2186.93 212.515 2188.21 211.826V211.826Z" fill="#00263B" stroke="#162447" stroke-width="0.13" stroke-miterlimit="10"/>
<path d="M2191.7 231.569C2191.71 232.523 2191.51 233.468 2191.13 234.343C2190.75 235.217 2190.19 236.003 2189.48 236.648C2188.78 237.293 2187.95 237.784 2187.04 238.09C2186.14 238.396 2185.18 238.51 2184.23 238.424C2182.33 238.499 2180.47 237.822 2179.06 236.54C2177.65 235.257 2176.8 233.472 2176.69 231.569C2176.87 229.702 2177.74 227.968 2179.13 226.707C2180.51 225.445 2182.32 224.746 2184.2 224.746C2186.07 224.746 2187.88 225.445 2189.27 226.707C2190.66 227.968 2191.52 229.702 2191.7 231.569V231.569Z" fill="#00263B" stroke="#162447" stroke-width="0.13" stroke-miterlimit="10"/>
<path d="M2394.41 149.719L2259.23 150.61L2226.05 184.885L2225.02 42.9848C2225 41.5785 2225.26 40.1828 2225.8 38.8807C2226.33 37.5787 2227.12 36.3968 2228.11 35.4055C2229.11 34.4142 2230.3 33.6337 2231.6 33.1104C2232.91 32.5871 2234.31 32.3317 2235.71 32.3594L2393.38 31.3311C2396.16 31.2569 2398.85 32.2804 2400.88 34.1796C2402.91 36.0788 2404.1 38.7007 2404.21 41.4767L2404.9 139.093C2404.92 140.482 2404.66 141.861 2404.14 143.149C2403.62 144.438 2402.85 145.61 2401.87 146.599C2400.9 147.587 2399.74 148.372 2398.45 148.908C2397.17 149.443 2395.8 149.719 2394.41 149.719V149.719Z" fill="#F8EEEE" stroke="#F8EEEE" stroke-width="1.06" stroke-miterlimit="10"/>
<path d="M2345.05 68.7599C2336.89 61.0136 2321.47 68.7599 2315.92 75.615C2310.23 68.7599 2294.74 61.0136 2286.65 68.7599C2279.79 74.5868 2281.3 83.567 2284.66 91.9302C2291.12 105.823 2302.33 116.956 2316.26 123.327V123.327C2330.14 116.832 2341.19 105.533 2347.38 91.5189C2350.33 83.4984 2351.5 74.5182 2345.05 68.7599Z" fill="#EB4D55"/>
<path d="M2531.79 286.821L2420.12 287.506C2418.38 287.524 2416.66 287.2 2415.05 286.551C2413.45 285.901 2411.98 284.941 2410.75 283.724C2409.51 282.508 2408.53 281.059 2407.85 279.461C2407.18 277.863 2406.83 276.147 2406.82 274.413V274.413C2406.8 270.916 2408.17 267.554 2410.62 265.062C2413.07 262.57 2416.41 261.15 2419.91 261.114L2531.58 260.36C2533.32 260.351 2535.04 260.684 2536.65 261.341C2538.26 261.997 2539.72 262.964 2540.96 264.187C2542.19 265.409 2543.17 266.862 2543.85 268.464C2544.52 270.066 2544.87 271.784 2544.88 273.522V273.522C2544.9 277.019 2543.53 280.381 2541.08 282.873C2538.62 285.365 2535.28 286.785 2531.79 286.821V286.821Z" fill="#80C2E8" stroke="#80C2E8" stroke-width="0.17" stroke-miterlimit="10"/>
<path d="M2531.85 347.009L2420.46 347.694C2418.73 347.712 2417 347.387 2415.4 346.738C2413.79 346.089 2412.32 345.129 2411.09 343.912C2409.85 342.695 2408.87 341.246 2408.2 339.649C2407.52 338.051 2407.17 336.335 2407.16 334.601V334.601C2407.14 331.104 2408.51 327.742 2410.96 325.25C2413.42 322.757 2416.76 321.338 2420.25 321.302L2531.92 320.548C2535.42 320.548 2538.77 321.92 2541.26 324.37C2543.74 326.82 2545.17 330.15 2545.22 333.641V333.641C2545.24 335.402 2544.91 337.148 2544.24 338.778C2543.58 340.408 2542.59 341.889 2541.35 343.134C2540.1 344.379 2538.62 345.363 2536.99 346.028C2535.36 346.694 2533.62 347.027 2531.85 347.009V347.009Z" fill="#80C2E8" stroke="#80C2E8" stroke-width="0.17" stroke-miterlimit="10"/>
<path d="M293.389 428.31C310.085 428.31 323.62 414.775 323.62 398.079C323.62 381.383 310.085 367.848 293.389 367.848C276.693 367.848 263.158 381.383 263.158 398.079C263.158 414.775 276.693 428.31 293.389 428.31Z" stroke="#4092C1" stroke-width="0.55" stroke-miterlimit="10"/>
<path d="M2710.98 1242.08C2710.96 1244.47 2711.66 1246.81 2712.98 1248.8C2714.3 1250.79 2716.17 1252.35 2718.38 1253.27C2720.58 1254.2 2723.01 1254.45 2725.35 1253.99C2727.7 1253.53 2729.86 1252.39 2731.55 1250.7C2733.24 1249.02 2734.4 1246.87 2734.87 1244.53C2735.34 1242.18 2735.11 1239.76 2734.2 1237.55C2733.28 1235.34 2731.74 1233.45 2729.75 1232.12C2727.77 1230.79 2725.43 1230.08 2723.04 1230.08C2719.86 1230.08 2716.8 1231.34 2714.54 1233.59C2712.28 1235.84 2711 1238.89 2710.98 1242.08Z" fill="#EB4D55"/>
<path d="M901.504 498.369C916.611 498.369 928.856 486.123 928.856 471.017C928.856 455.911 916.611 443.666 901.504 443.666C886.398 443.666 874.153 455.911 874.153 471.017C874.153 486.123 886.398 498.369 901.504 498.369Z" fill="#F8EEEE" stroke="#F8EEEE" stroke-width="1.06" stroke-miterlimit="10"/>
<path d="M1931.9 452.783C1947 452.783 1959.25 440.537 1959.25 425.431C1959.25 410.325 1947 398.079 1931.9 398.079C1916.79 398.079 1904.54 410.325 1904.54 425.431C1904.54 440.537 1916.79 452.783 1931.9 452.783Z" fill="#F8EEEE" stroke="#F8EEEE" stroke-width="1.06" stroke-miterlimit="10"/>
<path d="M2898.4 1127.6C2913.5 1127.6 2925.75 1115.35 2925.75 1100.25C2925.75 1085.14 2913.5 1072.9 2898.4 1072.9C2883.29 1072.9 2871.04 1085.14 2871.04 1100.25C2871.04 1115.35 2883.29 1127.6 2898.4 1127.6Z" fill="#F8EEEE" stroke="#F8EEEE" stroke-width="1.06" stroke-miterlimit="10"/>
<path d="M509.393 1474.06C524.499 1474.06 536.745 1461.81 536.745 1446.7C536.745 1431.6 524.499 1419.35 509.393 1419.35C494.287 1419.35 482.041 1431.6 482.041 1446.7C482.041 1461.81 494.287 1474.06 509.393 1474.06Z" fill="#F8EEEE" stroke="#F8EEEE" stroke-width="1.06" stroke-miterlimit="10"/>
<g style="mix-blend-mode:screen" opacity="0.48">
<path d="M823.219 1624.39C823.219 1628.84 821.901 1633.18 819.43 1636.88C816.959 1640.58 813.448 1643.46 809.339 1645.16C805.231 1646.86 800.71 1647.31 796.348 1646.44C791.986 1645.57 787.98 1643.43 784.835 1640.29C781.691 1637.14 779.549 1633.14 778.682 1628.78C777.814 1624.41 778.26 1619.89 779.961 1615.78C781.663 1611.68 784.545 1608.16 788.243 1605.69C791.94 1603.22 796.287 1601.9 800.735 1601.9C806.698 1601.9 812.417 1604.27 816.634 1608.49C820.85 1612.71 823.219 1618.43 823.219 1624.39V1624.39Z" fill="#78C7E3"/>
</g>
</g>
<defs>
<clipPath id="clip0">
<rect width="3198" height="2634" fill="white"/>
</clipPath>
</defs>
</svg>
