<svg id="OBJECTS" xmlns="http://www.w3.org/2000/svg" viewBox="0 0 500 500"><path d="M366.2,143.38a8.18,8.18,0,0,1,.35-3.63,6.2,6.2,0,0,1,1.63-2.7,4.23,4.23,0,0,1,1.54-1.09c2.81-.74,5.61-.91,8.1.95a8.17,8.17,0,0,1,3.24,8.43,3,3,0,0,1-.39,1,14.1,14.1,0,0,1-2.11,2.92,5,5,0,0,1-3.12,1.67c-.77.09-1.55.11-2.32.23a4.44,4.44,0,0,1-4-1.38,19.85,19.85,0,0,1-2.1-2.39,4.26,4.26,0,0,1-.86-3C366.16,144,366.18,143.67,366.2,143.38Z" fill="#0476cc"/><path d="M354,421.52c3.16-.23,6.73,3.31,6.69,7.16a6.27,6.27,0,0,1-4.49,6,12.66,12.66,0,0,1-3.74.64,6.22,6.22,0,0,1-6.26-7.87C347.3,424,349.33,421.57,354,421.52Z" fill="#0476cc"/><path d="M399.43,104.11a8,8,0,0,1-6.6-4.26,4.68,4.68,0,0,1-.09-3.91,7.46,7.46,0,0,1,8.14-4.68c.28,0,.56,0,.84.07a5.17,5.17,0,0,1,4.63,3.79,6.64,6.64,0,0,1-1.76,7.36A5,5,0,0,1,402,103.8C401.13,103.92,400.3,104.07,399.43,104.11Z" fill="#2ec2ac"/><path d="M121.72,111.91a4,4,0,0,1,2.87.86,6.27,6.27,0,0,1,2.47,6.71,16.59,16.59,0,0,1-.83,2.16c-1.29,2.6-3.53,3.73-6.32,4a4.57,4.57,0,0,1-3.43-1.41,6.57,6.57,0,0,1-1-8.82,10.32,10.32,0,0,1,2.74-2.61A6,6,0,0,1,121.72,111.91Z" fill="#0476cc"/><path d="M74,206.13l-1.2-.08a4.75,4.75,0,0,1-4.25-4.94,8.11,8.11,0,0,1,2.57-5.44c.41-.42,1-.5,1.47-.8a8.52,8.52,0,0,1,3.87-1,4.44,4.44,0,0,1,4,2A3.57,3.57,0,0,1,81,198.5a11.15,11.15,0,0,0-.29,2.31,1.12,1.12,0,0,1-.14.61C79.07,204.13,77,206.17,74,206.13Z" fill="#ef9ea4"/><path d="M414.69,253.22a6.27,6.27,0,0,1,1.21-4.11c2.2-3.26,6.58-3,8.85-1.25a5.38,5.38,0,0,1,1.88,2.26c1.18,3.1.25,5.45-2.66,7.19a8.9,8.9,0,0,1-4.89,1.08A4.39,4.39,0,0,1,414.69,253.22Z" fill="#2ec2ac"/><path d="M109.78,315.22a6.6,6.6,0,0,1-4.52,6,5.2,5.2,0,0,1-3.93.11,3.52,3.52,0,0,1-.92-.49,7.88,7.88,0,0,1-2.49-5.46,4,4,0,0,1,.35-1.66,6.87,6.87,0,0,1,7-4A5.7,5.7,0,0,1,109.78,315.22Z" fill="#0476cc"/><path d="M247,44.56a4.41,4.41,0,0,1,4.44,2.67,4.05,4.05,0,0,1,.39,1.42A7,7,0,0,1,247,56a17.36,17.36,0,0,1-2.49.47,3.06,3.06,0,0,1-3.2-1.58,6.2,6.2,0,0,1-.23-7A6.41,6.41,0,0,1,247,44.56Z" fill="#ef9ea4"/><path d="M423,217.09a1.84,1.84,0,0,0-.48,0c-2.15.59-3.36-.66-4.23-2.3a5.74,5.74,0,0,1,2-7.79,7.55,7.55,0,0,1,8.69,1,3,3,0,0,1,1.07,2,6.27,6.27,0,0,1-2.5,6,5.78,5.78,0,0,1-3,1A10.16,10.16,0,0,0,423,217.09Z" fill="#ef9ea4"/><path d="M386.72,54.75c-.09,1.16-.13,1.87-.2,2.57a4,4,0,0,1-2,3.11c-.55.33-1.11.63-1.66.94a3.39,3.39,0,0,1-4-.31,6.85,6.85,0,0,1-.58-10.6c1-.91,3.65-1.72,4.73-1.34a5.29,5.29,0,0,1,3.51,4A9,9,0,0,1,386.72,54.75Z" fill="#fccb42"/><path d="M71.53,341.84a4,4,0,0,1,3.1,1.21,2.07,2.07,0,0,1,.3.29c.43.69,1.48.69,1.74,1.48s-.16,1.51-.17,2.3a6.2,6.2,0,0,1-4.22,5.58,2.87,2.87,0,0,1-1.24.21c-2-.34-3.9-.83-5.26-2.47-1.87-2.26-1.34-5.22,1-7C68.27,342.32,69.92,342.21,71.53,341.84Z" fill="#fccb42"/><path d="M110.73,448.55c0,2.33-1.31,3.81-3.13,4.95a19.28,19.28,0,0,1-2.33,1,2.52,2.52,0,0,1-2.76-.54,7.38,7.38,0,0,1-2.32-3.5,5,5,0,0,1,3.3-6.24,12,12,0,0,0,1.17-.49,3.71,3.71,0,0,1,4.15.74A4.9,4.9,0,0,1,110.73,448.55Z" fill="#ef9ea4"/><path d="M195,457.59a5.35,5.35,0,0,1-2.24,4.28,2.84,2.84,0,0,1-1.36.57,4.73,4.73,0,0,0-1.26.16c-1.63.67-2.72-.26-3.72-1.28a15.51,15.51,0,0,1-1.68-2.19,3.92,3.92,0,0,1,.23-4.91,4.55,4.55,0,0,1,3.75-2c.69,0,1.32-.33,2.08-.17A5.76,5.76,0,0,1,195,457.59Z" fill="#fccb42"/><path d="M124,86.24c-1.82.27-3-1-3.86-2.65a4.42,4.42,0,0,1,.32-4.82,5.83,5.83,0,0,1,5.83-2.67,5,5,0,0,1,3.28,1.28,4.58,4.58,0,0,1-1,7.38c-.61.36-1.22.72-1.85,1A4.54,4.54,0,0,1,124,86.24Z" fill="#2ec2ac"/><path d="M389.41,413.06a7.64,7.64,0,0,1,1.63-4.35,4.8,4.8,0,0,1,5.92-1.18c2.59,1.66,3.59,4.35,2,7.33a5.54,5.54,0,0,1-2.91,2.31,25.2,25.2,0,0,1-3,.89,1.92,1.92,0,0,1-1.62-.25A5,5,0,0,1,389.41,413.06Z" fill="#eb5822"/><path d="M312.14,60.56a5.87,5.87,0,0,1,2.45.58c2.24,1.25,2.91,2.93,2,5.33a9.7,9.7,0,0,1-.76,1.51,1.77,1.77,0,0,0-.32,1.38,1.19,1.19,0,0,1-1,1.42c-1.2.29-2.38.73-3.64-.1-1-.66-2.24-.89-3.08-1.81a10,10,0,0,1-1.23-1.46,3,3,0,0,1,0-3.4l.34-.53C308.78,60.57,309.38,60.89,312.14,60.56Z" fill="#0476cc"/><path d="M222.32,36.64a6.66,6.66,0,0,1-2.19,4.92,4.1,4.1,0,0,1-3.7,1.09c-.35-.07-.69-.17-1-.23a3.89,3.89,0,0,1-3.3-5.4,10.09,10.09,0,0,1,1.79-3.1A5.78,5.78,0,0,1,218.82,32a3.61,3.61,0,0,1,3.05,2.37A5,5,0,0,1,222.32,36.64Z" fill="#2ec2ac"/><path d="M69.38,274.5a5,5,0,0,1,.84-3.4,3.73,3.73,0,0,1,3.17-1.83,9.87,9.87,0,0,1,2.11.08A5,5,0,0,1,79,276a6,6,0,0,1-5.66,4.08,2.52,2.52,0,0,1-1.62-.4c-1.37-1.18-2.55-2.49-2.37-4.51C69.36,275,69.37,274.76,69.38,274.5Z" fill="#eb5822"/><path d="M263.2,457.61a3.33,3.33,0,0,1-3.39-1.15,4,4,0,0,1-1.13-3.31,4.46,4.46,0,0,1,3.82-4.45,6.74,6.74,0,0,1,5,.33,5.57,5.57,0,0,1,1.37,1,3.72,3.72,0,0,1,0,5.49,4.39,4.39,0,0,1-1.54,1.11C265.92,457.12,264.65,458.13,263.2,457.61Z" fill="#eb5822"/><path d="M319.58,438.55a2.74,2.74,0,0,1-3-1.93,6.37,6.37,0,0,1,.48-6.63,3.39,3.39,0,0,1,2.46-1.49A5.75,5.75,0,0,1,324.4,430a4.12,4.12,0,0,1,1.25,4.05A5.9,5.9,0,0,1,319.58,438.55Z" fill="#fccb42"/><path d="M98.56,141.4c-.53,2.9-1.7,5.63-5.18,5.75-2.62.1-4.7-1-5.14-4a4.86,4.86,0,0,1,2.28-4.73,6.06,6.06,0,0,1,4.9-.85A4.08,4.08,0,0,1,98.56,141.4Z" fill="#fccb42"/><path d="M429.74,352.46a3.75,3.75,0,0,1-2.9,4,18.44,18.44,0,0,1-2.86.73c-2.31.33-3.7-.32-4.67-2.32a4.76,4.76,0,0,1,4.31-6.4,14.48,14.48,0,0,1,2.71.09,4.88,4.88,0,0,1,3.09,2.39A3,3,0,0,1,429.74,352.46Z" fill="#2ec2ac"/><path d="M157.57,45a5.18,5.18,0,0,1-2.79,4.69,3.3,3.3,0,0,0-.73.42,2.19,2.19,0,0,1-3.17,0,15.82,15.82,0,0,1-2.36-1.8,4.14,4.14,0,0,1,1.22-6.2A10.09,10.09,0,0,1,153.59,41,3.65,3.65,0,0,1,157.57,45Z" fill="#fccb42"/><path d="M432.54,314.29a8.13,8.13,0,0,1-.65,2.6c-1.07,2.32-3.21,2.94-5.5,2.35a4.66,4.66,0,0,1-3.46-4.95,2.87,2.87,0,0,1,1.11-2.2,12.84,12.84,0,0,0,1.46-1.21c1.51-1.44,3.28-1.2,4.92-.53S432.38,312.78,432.54,314.29Z" fill="#035694"/><path d="M395.16,375a3.36,3.36,0,0,1,2.47.69,3.08,3.08,0,0,1,1.32,3.68,5.47,5.47,0,0,1-4.88,4.08c-.28,0-.56.07-.84.11a3.81,3.81,0,0,1-3.9-5.48,4.85,4.85,0,0,1,4.43-3.08Z" fill="#fccb42"/><path d="M73.8,399.61c-.17,1.43-.58,2.8-2.23,3.43a9.38,9.38,0,0,1-2.39.82,4.43,4.43,0,0,1-4.63-2.56,3.81,3.81,0,0,1,1.29-4.72,4.89,4.89,0,0,1,6.7.05A4.73,4.73,0,0,1,73.8,399.61Z" fill="#eb5822"/><path d="M415.19,137.7a4,4,0,0,1-4.16-2.87,4.21,4.21,0,0,1,1.58-4.68c.62-.45,1.23-1.07,2.05-1,1.31.16,2.7,0,3.9.72a4.45,4.45,0,0,1,1.66,4.51,3.59,3.59,0,0,1-3.1,3C416.42,137.56,415.72,137.63,415.19,137.7Z" fill="#ef9ea4"/><path d="M164.46,459.85a3.81,3.81,0,0,1-.07,1.79,3.47,3.47,0,0,1-2.1,2.48c-.59.24-1.21.38-1.79.62a2.88,2.88,0,0,1-3.12-.68,4.55,4.55,0,0,1-.26-6.75,2.7,2.7,0,0,1,1.45-.81c.55-.08,1.11-.19,1.67-.27A3.47,3.47,0,0,1,163,457C164,457.74,164.89,458.51,164.46,459.85Z" fill="#ef9ea4"/><path d="M403.3,274.18a3.89,3.89,0,0,1-1.43,3.44,6.71,6.71,0,0,1-2.93,1.95,2.19,2.19,0,0,1-2.3-.67,4.57,4.57,0,0,1-1.1-2.26c-.1-.48-.12-1-.23-1.46a3.41,3.41,0,0,1,1.53-3.68,3.57,3.57,0,0,1,4.17-.26,3.39,3.39,0,0,0,.72.44A2,2,0,0,1,403.3,274.18Z" fill="#035694"/><path d="M311.22,294.84c0,.2,0,.38-.19.46A.4.4,0,0,1,311.22,294.84Z" fill="#fccb42"/><path d="M259.42,412.37a78.89,78.89,0,0,0-10.24-1.85,131.42,131.42,0,0,0-17.85-1,80.86,80.86,0,0,0-15.82,2,1.64,1.64,0,0,1-1.76-.32c-1-1-1-1.74,0-2.74a8.49,8.49,0,0,1,3.31-1.86,33.08,33.08,0,0,1,9.39-1.74,95.39,95.39,0,0,1,13.2.35,127.6,127.6,0,0,1,16.82,2.63c1.93.44,3.85.95,5.76,1.51a1.86,1.86,0,0,0,1.77-.27,69.39,69.39,0,0,1,7.8-4.79,64.49,64.49,0,0,1,12.35-5.16A30.26,30.26,0,0,1,295.74,398,20,20,0,0,1,309,404.5a26.08,26.08,0,0,1,4.89,7.44,9.83,9.83,0,0,1,.75,5.62,7.42,7.42,0,0,1-3.41,5.17A13.94,13.94,0,0,1,305.1,425a29.45,29.45,0,0,1-9.31-.68,66.59,66.59,0,0,1-9.75-3c-3.51-1.34-7-2.67-10.54-4a1.69,1.69,0,0,0-1.78.12c-4.13,3-8.28,6-12.38,8.92.09.69.58.68,1,.81,3.46,1.26,7,2.45,10.39,3.8a159.08,159.08,0,0,1,26.19,12.72,63.8,63.8,0,0,1,6.52,4.42,19.08,19.08,0,0,1,3.7,3.81,3.4,3.4,0,0,1,.74,1.51c0,.27-.25.59-.51.51a4.4,4.4,0,0,1-.79-.29c-5.55-2.85-11.33-5.24-17-7.81-1.68-.75-3.4-1.44-5.07-2.23-5.85-2.73-11.92-4.94-17.94-7.25-4-1.55-8.12-3-12.15-4.57a2.18,2.18,0,0,0-2.5.29,155.59,155.59,0,0,1-13.09,9.14A54.24,54.24,0,0,1,221.13,449a22.85,22.85,0,0,1-5.09.31,12.46,12.46,0,0,1-9.24-4.65,7.54,7.54,0,0,1-1.18-8.19,16.69,16.69,0,0,1,4.07-5.93,29.82,29.82,0,0,1,13.73-7.36,50.86,50.86,0,0,1,18.19-1c1.34.15,2.68.33,4,.58a2.54,2.54,0,0,0,2.47-.75c2.66-2.56,5.44-5,8.34-7.29C257.31,414,258.2,413.32,259.42,412.37Zm-27.36,14.21a27.28,27.28,0,0,0-11,1.83,24.7,24.7,0,0,0-9,5.87,11.71,11.71,0,0,0-3.05,5.05,7.74,7.74,0,0,0,.33,5.4,1.66,1.66,0,0,0,1.63,1.11,18.17,18.17,0,0,0,6.89-1.16,46.13,46.13,0,0,0,12-6.39c4-3,7.67-6.54,11.4-9.92a.91.91,0,0,0,.25-.54c0-.31-.27-.27-.45-.3A38.62,38.62,0,0,0,232.06,426.58Zm45.73-11.81c3.48,1.51,6.81,2.66,10.16,3.77a34,34,0,0,0,12.78,1.72,14,14,0,0,0,6.06-1.77c2.91-1.59,4.11-4.17,4.24-7.36a3.44,3.44,0,0,0-1.39-3,12.61,12.61,0,0,0-4.89-2.45,17.31,17.31,0,0,0-8.64.18C289.51,407.58,283.66,410.86,277.79,414.77Z" fill="#0476cc"/><path d="M368.25,303.48c.38-5,.58-10.06,1.13-15.08.83-7.56,2.36-15,3.71-22.47.66-3.62,1.38-7.24,2.12-10.86,1-4.86,2.36-9.64,3.74-14.4,2-7,4.13-14,6.25-21,2.25-7.4,4.86-14.68,7.52-21.94,2.15-5.85,4.3-11.71,6.52-17.54,1.39-3.65,2.9-7.25,4.37-10.86a10.8,10.8,0,0,1,.82-1.49,1.8,1.8,0,0,1,1.39-.88,30.3,30.3,0,0,1,11.19.42,9.25,9.25,0,0,1,1.58.62.86.86,0,0,1,.35,1.27c-4.28,8.42-7.76,17.19-11.66,25.78-1.82,4-3,8.26-4.49,12.4-2.05,5.68-3.77,11.45-5.31,17.28-1.78,6.72-3.73,13.39-5.55,20.1-1.33,4.86-2.68,9.71-3.84,14.61s-2.22,10.12-3.2,15.21c-1.51,7.87-3.17,15.71-4.87,23.54-.34,1.59-.81,3.16-1.19,4.75a5.65,5.65,0,0,1-2.66,3.68,19.24,19.24,0,0,1-6,2.62c-1,.22-1.42-.05-1.67-1.1a8.49,8.49,0,0,1-.22-1.68C368.22,305.47,368.25,304.47,368.25,303.48Z" fill="#eb5822"/><path d="M361.6,290.8a194.72,194.72,0,0,1,1.4-20.61c.64-5.64,1.33-11.28,2.26-16.88s2.17-11.42,3.62-17.06c2.2-8.6,4.84-17.06,7.75-25.43a186.75,186.75,0,0,1,7.43-18.35c3.53-7.52,7.22-15,11.26-22.22.42-.74.76-1.52,1.17-2.27s.54-.81,1.34-.6a4.37,4.37,0,0,1,1,.37.63.63,0,0,1,.29.89,1.21,1.21,0,0,1-.09.2c-3.31,5.15-5.73,10.75-8.34,16.27-2.75,5.84-5.36,11.75-7.6,17.81a344.07,344.07,0,0,0-11,35.81c-1.45,5.78-2.7,11.61-3.7,17.49-1.32,7.7-2.46,15.42-3.23,23.2-.69,7-1.08,14-1.3,21.05,0,1.35-.17,2.69-.26,4a1.69,1.69,0,0,1-.41,1.18.26.26,0,0,1-.19.09c-.11,0-.3-.07-.32-.14a8,8,0,0,1-.35-1.44c-.16-1.55-.33-3.11-.41-4.67C361.79,296.63,361.71,293.71,361.6,290.8Z" fill="#035694"/><path d="M368.35,329.31a5.43,5.43,0,0,1-5.72-3.5,8.81,8.81,0,0,1-.24-6,10.55,10.55,0,0,1,4.06-5.79c2.39-1.79,7.32-1.95,10,0a4.9,4.9,0,0,1,2,3.37,8.92,8.92,0,0,1-2.22,7.28,32.3,32.3,0,0,1-2.45,2.65,7.05,7.05,0,0,1-4.16,1.94C369.19,329.29,368.77,329.29,368.35,329.31Z" fill="#eb5822"/><path d="M158.15,282.5c-1.82,1.16-3.43,2.31-5.2,3.24a33.83,33.83,0,0,1-10.8,3.74,25.68,25.68,0,0,1-19.91-4.91,37.05,37.05,0,0,1-10.82-13.51q-1-2.1-2.11-4.19A70.62,70.62,0,0,1,103,248.4a105.61,105.61,0,0,1-1.46-29.69A144.54,144.54,0,0,1,110.13,181a148.05,148.05,0,0,1,10.08-21.81c1.08-1.91,2-3.9,3-5.86a41.8,41.8,0,0,1,4.39-6.78,4.25,4.25,0,0,1,4.26-1.79,50.11,50.11,0,0,1,7.26,1.63c.68.19,1.34.43,2,.66a4.57,4.57,0,0,1,1.5.78c.85.69.92.89.58,2a16,16,0,0,1-1.76,3.63c-3.25,5.34-6.42,10.71-9.21,16.31A205.49,205.49,0,0,0,121.35,195a107.5,107.5,0,0,0-4.76,20.49,141.75,141.75,0,0,0-1.22,22.74,59.46,59.46,0,0,0,2.74,15.26c.61,2.11,1.32,4.19,2.07,6.26a43.36,43.36,0,0,0,13.73,18.62,17.22,17.22,0,0,0,6.44,3.19c3.13.87,9.41,0,11.85-3.07a14.71,14.71,0,0,1,1-1.14,1.34,1.34,0,0,0,.18-1.71c-3.16-6.39-4.2-13.21-4.08-20.27a58.13,58.13,0,0,1,3.5-18.76c.34-.93.63-1.88,1-2.82a41.15,41.15,0,0,1,9-15,12.87,12.87,0,0,1,7.87-4.26c4.29-.47,6.52.6,8.53,4.07a29.91,29.91,0,0,1,3,8.83,34.72,34.72,0,0,1,1,8.44,59.91,59.91,0,0,1-1.87,12,63.64,63.64,0,0,1-6,14.93,59.48,59.48,0,0,1-3.85,6.6,48.55,48.55,0,0,1-4.47,5.64,1.23,1.23,0,0,0-.49,1,13.36,13.36,0,0,0,4.36,2,2.61,2.61,0,0,0,.84.07,25,25,0,0,0,8.38-2.13,51.22,51.22,0,0,0,17-12.58A102.75,102.75,0,0,0,208.27,248a128.53,128.53,0,0,0,10.95-22.31c2.74-7.23,5.23-14.55,7.27-22a55.5,55.5,0,0,0,1.8-10.48c.08-1.1,0-1.14-1-1.47-2-.59-4-1.15-5.91-1.78a22.87,22.87,0,0,1-5.53-2.7c-5.4-3.49-8-8.63-8.69-14.89a6.55,6.55,0,0,1,1.35-4.61,9.71,9.71,0,0,1,9.88-4.06,18.5,18.5,0,0,1,8,3.73,28,28,0,0,1,6.57,6.33,38.93,38.93,0,0,1,4.9,8.69c.5,1.33,1.07,2.63,1.63,3.94a1.73,1.73,0,0,0,1.42,1.09,45.34,45.34,0,0,0,9.73.65,94,94,0,0,0,30.57-6,106,106,0,0,0,27.37-14.94A130.93,130.93,0,0,0,323,154.34a133.06,133.06,0,0,0,11.34-13.54c1.36-1.81,2.48-3.8,3.74-5.69,5.47-8.23,9-17.37,12.21-26.61.75-2.14.72-2.15,2.93-2.06s4.22.58,6.36.56c.75,0,1.11.53,1,1.32a13.54,13.54,0,0,1-.33,1.66,74.63,74.63,0,0,1-4.84,12.94,124.69,124.69,0,0,1-12.08,21,121.63,121.63,0,0,1-17.52,19.72,117,117,0,0,1-19.81,15.06,124.58,124.58,0,0,1-24.66,11.49,102.38,102.38,0,0,1-20.29,4.72,73.76,73.76,0,0,1-11.7.5c-2.76-.12-5.53-.34-8.29-.53-1-.07-1.11,0-1.19,1A80.92,80.92,0,0,1,238,208a176.93,176.93,0,0,1-10.07,29.81A128,128,0,0,1,214,262.24a79.05,79.05,0,0,1-18.47,18.44,44.4,44.4,0,0,1-17.44,7.57c-1.39.26-2.81.42-4.22.56a11.73,11.73,0,0,1-4.63-.51c-1-.32-2.07-.51-3.07-.85a20.14,20.14,0,0,1-6.8-3.89Zm3-14.24a5.81,5.81,0,0,0,.61-.69,87,87,0,0,0,10.18-23,43.6,43.6,0,0,0,1.45-15.17,14.27,14.27,0,0,0-.83-3.94,1.28,1.28,0,0,0-2-.72,8.28,8.28,0,0,0-2.42,2.37,55.54,55.54,0,0,0-6.18,12.08,48.52,48.52,0,0,0-2.08,23.9A19.42,19.42,0,0,0,161.13,268.26Zm67.2-82.92a5.45,5.45,0,0,0-.43-2.9,21.89,21.89,0,0,0-7.79-10.35,7.91,7.91,0,0,0-2.26-1.15,4.89,4.89,0,0,0-2.31-.22,1.48,1.48,0,0,0-1.38,1.38,4.25,4.25,0,0,0,.49,2.66,24,24,0,0,0,4.52,6.12C221.69,183.37,224.86,184.49,228.33,185.34Z" fill="#eb5822"/><path d="M90.56,222.43a93.32,93.32,0,0,1,.55-9.54,134.28,134.28,0,0,1,8.76-35,204.07,204.07,0,0,1,12.68-26c.56-1,1.07-2,1.62-3s1-1.71,2.25-1.6a1,1,0,0,0,.4-.12c.33-.13.7-.33,1,0a1.49,1.49,0,0,1,.48,1.54,12,12,0,0,1-1,1.88A136.48,136.48,0,0,0,107,170.42a155.25,155.25,0,0,0-9.26,28.29,124.11,124.11,0,0,0-2.49,15.12,114.93,114.93,0,0,0-.65,15.74A90.94,90.94,0,0,0,105.12,270a79.88,79.88,0,0,0,11.26,16c.36.41,1.15.68.78,1.5-.65,0-1-.49-1.37-.85a75.49,75.49,0,0,1-16.16-21.27,83.6,83.6,0,0,1-8-25.7A100.7,100.7,0,0,1,90.56,222.43Z" fill="#035694"/><path d="M247.08,186.14H242a1.84,1.84,0,0,1-1.24-.22c-.32-.25-.73-.52-.67-1s.49-.68.93-.71c.63-.06,1.27-.06,1.91-.07,3.48,0,6.95,0,10.43-.4a99.42,99.42,0,0,0,17.92-3.57,95.53,95.53,0,0,0,24.56-11.09A115,115,0,0,0,315.62,153,135.13,135.13,0,0,0,338,122.31c2.15-3.92,4.15-7.92,6-12,.45-1,.94-1.91,1.42-2.86a5.38,5.38,0,0,1,.46-.71.66.66,0,0,1,.74-.28c.41.13.48.49.39.87-.14.62-.28,1.24-.47,1.85a93.76,93.76,0,0,1-5.39,13.42A118.06,118.06,0,0,1,331.64,139a119.84,119.84,0,0,1-17.25,19.9,104.76,104.76,0,0,1-30.06,19.07,98.86,98.86,0,0,1-29.19,7.4c-2.69.26-5.37.48-8.06.73Z" fill="#035694"/><path d="M179.05,270.52a6.91,6.91,0,0,1-.92-.12.36.36,0,0,1-.2-.3.44.44,0,0,1,.22-.3,1,1,0,0,1,.4-.13c3.55-.7,6.31-2.76,8.89-5.14a40.19,40.19,0,0,0,5.57-6.64,110.79,110.79,0,0,0,10.21-18.35A224.44,224.44,0,0,0,214.29,209c1-3.41,1.72-6.88,2.58-10.32a5.94,5.94,0,0,0,.21-2.72c-.13-.62.23-1,.9-1.21.4-.14.8-.27,1.19-.43a1,1,0,0,1,1.57.76,2.31,2.31,0,0,1-.16,1.66,15.09,15.09,0,0,0-1.1,4.1A220.25,220.25,0,0,1,212,228.07,133.11,133.11,0,0,1,204.27,246a74.79,74.79,0,0,1-8.37,13,44,44,0,0,1-8,7.82c-2.13,1.54-4.32,3-7,3.44C180.24,270.39,179.61,270.45,179.05,270.52Z" fill="#035694"/><path d="M272.52,251.14a4.41,4.41,0,0,1,.18.8c.16,3.23.29,6.46.46,9.69.11,2.25.26,4.49.4,6.74a44.77,44.77,0,0,1-11.71,12.81,39.24,39.24,0,0,1-15.5,6.76c-10.17,2-19.29-5-21.41-13.86a32.21,32.21,0,0,1-.7-10.17,46.77,46.77,0,0,1,3.41-14.23,33.37,33.37,0,0,1,7-10.6,38.73,38.73,0,0,1,5.19-4.72,23.33,23.33,0,0,1,9.39-3.83,14.09,14.09,0,0,1,7.93.69,9.17,9.17,0,0,1,5.69,6.45,11.76,11.76,0,0,1-1,8.87,33.77,33.77,0,0,1-6.79,8.69,46.32,46.32,0,0,1-13.58,9,18.32,18.32,0,0,1-1.81.61,1.23,1.23,0,0,0-1,1.21c-.15,3.67.12,7.25,1.92,10.56a10.17,10.17,0,0,0,4.26,4.33,6.28,6.28,0,0,0,4.14.57,19.94,19.94,0,0,0,10.73-5.25,33.85,33.85,0,0,0,5.77-7.35,86.17,86.17,0,0,0,4.83-9.72c.23-.52.43-1,.7-1.55a10.36,10.36,0,0,0,1.4-6.13C272.38,251.41,272.48,251.27,272.52,251.14Zm-16.33-8.62a3.81,3.81,0,0,0,0-.39c-.14-2.52-1.71-3.83-4.24-3.59a6.75,6.75,0,0,0-3.62,1.63,15.44,15.44,0,0,0-4.5,6.1,75.29,75.29,0,0,0-3.34,9.19c-.46,1.63-.79,3.31-1.14,5-.13.64.23.91.87.66a26.13,26.13,0,0,0,15-14A11.17,11.17,0,0,0,256.19,242.52Z" fill="#ef9ea4"/><path d="M242.3,294.16c-5.62,0-10-1.15-14-3.65a17.3,17.3,0,0,1-5.65-5.67,2.88,2.88,0,0,1-.38-1.82.62.62,0,0,1,.93-.47,2.12,2.12,0,0,1,.48.41c2.72,3.79,6.53,6,10.88,7.36a30.71,30.71,0,0,0,18,.2c.47-.14.94-.3,1.42-.43.26-.08.58-.22.7.16s-.24.49-.45.62a20.9,20.9,0,0,1-6.07,2.49A26.53,26.53,0,0,1,242.3,294.16Z" fill="#035694"/><path d="M310.31,252.28c.3-3.32.53-6.65.92-10,.5-4.23,1.2-8.44,2-12.62a78.57,78.57,0,0,1,4.53-14.62,151.25,151.25,0,0,1,9.51-18.8,61.74,61.74,0,0,1,12.89-15.77,22.68,22.68,0,0,1,7.3-4.29,13.84,13.84,0,0,1,5-.83,20.83,20.83,0,0,1,7.49,1.45,8.19,8.19,0,0,1,4.4,4.13,12.58,12.58,0,0,1,1.35,5.32,36.93,36.93,0,0,1-1.57,11.35,63.55,63.55,0,0,1-8,16.88,106.68,106.68,0,0,1-25.76,27.29c-1.13.86-2.28,1.69-3.45,2.51a2.43,2.43,0,0,0-1.14,1.7c-.47,3.58-1.36,7.11-1.5,10.74-.12,3.2-.54,6.37-.45,9.58a17.19,17.19,0,0,0,.92,5.43,5.64,5.64,0,0,0,4.94,4.11,3.74,3.74,0,0,0,2.25-.38,22.54,22.54,0,0,0,6.1-4.92,44.24,44.24,0,0,0,6.11-8.68,100.93,100.93,0,0,0,6.21-13.29,7.27,7.27,0,0,1,3.93-4.26,23.82,23.82,0,0,1,6.89-2.11,6.32,6.32,0,0,1,1.06-.09c1.08,0,1.42.39,1.23,1.43a4.85,4.85,0,0,1-.41,1.42c-2.36,4.61-4.48,9.35-7.26,13.74-2.12,3.36-4.2,6.75-6.61,9.92a40.72,40.72,0,0,1-16,12.75,24.21,24.21,0,0,1-7.34,2.08,11.4,11.4,0,0,1-10.51-4.41,16.93,16.93,0,0,1-3.27-6.17,45.06,45.06,0,0,1-1.66-9,1.29,1.29,0,0,1,.1-.41c-.46-.83.16-1.61.12-2.44-.11-2.66-.11-5.32-.17-8A3.43,3.43,0,0,0,310.31,252.28ZM326.82,241a2.29,2.29,0,0,0,1.25-.78,120.2,120.2,0,0,0,21.54-26.83,70.26,70.26,0,0,0,7.27-16.53,35.71,35.71,0,0,0,1.51-11.35,10.86,10.86,0,0,0-1.17-4.72c-1.25-2.37-1.18-2.14-2.94-.67a19.4,19.4,0,0,0-1.54,1.47,56.26,56.26,0,0,0-9.58,13.25,170.89,170.89,0,0,0-9.47,20.24,106.75,106.75,0,0,0-6.14,20.79A28.31,28.31,0,0,0,326.82,241Z" fill="#fccb42"/><path d="M351,169.15a26,26,0,0,1,11.71,3.11,2.64,2.64,0,0,1,1.3,1.06.69.69,0,0,1,0,.8.78.78,0,0,1-.53.27,6.19,6.19,0,0,1-2.6-.85,15.54,15.54,0,0,0-4.48-1.88,20.13,20.13,0,0,0-9.48.19,30.53,30.53,0,0,0-11.33,5.7,54.35,54.35,0,0,0-11,12.1c-1.69,2.45-3.25,5-4.89,7.49a4,4,0,0,1-1.17,1.49.5.5,0,0,1-.39.05.43.43,0,0,1-.19-.33,4,4,0,0,1,.57-2,48.5,48.5,0,0,1,5.19-9.51A49.82,49.82,0,0,1,335,175a33.83,33.83,0,0,1,8-4.4A23.46,23.46,0,0,1,351,169.15Z" fill="#035694"/><path d="M321.94,289.1c-3.58-.15-6.23-.51-8.7-1.77a12.69,12.69,0,0,1-6.81-9,12.05,12.05,0,0,1-.18-5.28l.21-.83a.68.68,0,0,1,.61-.51.73.73,0,0,1,.81.55c.14.47.22,1,.34,1.45.39,1.58.72,3.18,1.2,4.74a13.45,13.45,0,0,0,3.86,6.25,11.61,11.61,0,0,0,7.41,2.81,25,25,0,0,0,10-1.76,32.85,32.85,0,0,0,8.43-4.44,1.6,1.6,0,0,1,.58-.26,1,1,0,0,1,1,.66.63.63,0,0,1-.37.69c-4,2.32-8,4.6-12.52,5.77A28.35,28.35,0,0,1,321.94,289.1Z" fill="#035694"/><path d="M330,270.73a2,2,0,0,1-1.72-.89.51.51,0,0,1,.28-.67c.07,0,.13-.08.19-.07,1.82.37,2.91-.89,4.05-1.9a29.4,29.4,0,0,0,3.58-4.21,72.57,72.57,0,0,0,9.6-17.72c.13-.33.22-.68.38-1,.24-.46,1.37-.42,1.66,0a.64.64,0,0,1,.11.4,3.86,3.86,0,0,1-.21.81,94.47,94.47,0,0,1-7.41,15.77,28,28,0,0,1-5.1,6.51,10.06,10.06,0,0,1-4.48,2.71Z" fill="#035694"/><path d="M310.31,252.28a3.43,3.43,0,0,1,.2.81c.06,2.66.06,5.32.17,8,0,.83-.58,1.61-.12,2.44-.17-.31-.09-.71-.54-1-.44.68-.89,1.35-1.32,2a79.58,79.58,0,0,1-6.27,8.86,27.26,27.26,0,0,1-12,8.55,11.82,11.82,0,0,1-6.26.77,9.34,9.34,0,0,1-5.46-3.07,15.65,15.65,0,0,1-3-5.33c-.55-1.61-1-3.25-1.52-4.88-.12-.38-.07-.87-.59-1-.14-2.25-.29-4.49-.4-6.74-.17-3.23-.3-6.46-.46-9.69a4.41,4.41,0,0,0-.18-.8,30,30,0,0,1,.24-5.1,105.43,105.43,0,0,1,3.62-19.22,72.52,72.52,0,0,1,11.68-23.73,30.11,30.11,0,0,1,6.52-6.67,16.61,16.61,0,0,1,13.8-2.5,4.55,4.55,0,0,1,3.64,3.19,15.37,15.37,0,0,1,.83,3.73,30,30,0,0,1-1.16,9.89A85.14,85.14,0,0,1,287,251.5l-1.43,1.29a1.6,1.6,0,0,0-.59,1.07,51.29,51.29,0,0,0,.91,18,4.26,4.26,0,0,0,1.82,2.76,4.55,4.55,0,0,0,5.19.16,22.79,22.79,0,0,0,4-3.13,51.86,51.86,0,0,0,7.7-9.88c1.66-2.64,3.18-5.36,4.77-8C309.68,253.22,310,252.76,310.31,252.28ZM285.93,248c1-.38,1.43-1.32,2-2.06a110.92,110.92,0,0,0,10.27-15.64,75.41,75.41,0,0,0,7.09-17.5,38.54,38.54,0,0,0,1.3-8,14.18,14.18,0,0,0-1.2-7.21,1.7,1.7,0,0,0-1.21.91c-1,1.45-2.06,2.88-3,4.39A101.67,101.67,0,0,0,292.8,221a146.17,146.17,0,0,0-7,26.26c-.05.3-.08.55.17.76-.12-.17-.23-.16-.29,0a.33.33,0,0,0,0,.19C285.86,248.24,285.94,248.14,285.93,248Z" fill="#2ec2ac"/><path d="M267.37,252a6.33,6.33,0,0,1-.59-2.86,76.15,76.15,0,0,1,.05-9.79,89.18,89.18,0,0,1,5-23.65,66.24,66.24,0,0,1,5.46-11.51,37.89,37.89,0,0,1,8.55-9.94,2.25,2.25,0,0,1,2.53-.19.7.7,0,0,1,.31.74,1.37,1.37,0,0,1-.56.88c-3.69,2.6-6.12,6.27-8.41,10a77.32,77.32,0,0,0-7.8,18.12A91.24,91.24,0,0,0,268,249.36c0,.64,0,1.27-.07,1.91A.85.85,0,0,1,267.37,252Z" fill="#035694"/><path d="M283.63,288.93a19.64,19.64,0,0,1-7.1-1.53,13.06,13.06,0,0,1-6.87-8.91,4.74,4.74,0,0,1-.05-.84.61.61,0,0,1,.45-.65,1.18,1.18,0,0,1,.8.11,3.24,3.24,0,0,1,.81,1,27.61,27.61,0,0,0,2.35,3.29,16.41,16.41,0,0,0,5.59,4.49,12.44,12.44,0,0,0,9.71.87,12.65,12.65,0,0,0,6-3.54,1,1,0,0,1,.32-.27.73.73,0,0,1,.79.12.44.44,0,0,1-.06.72c-1,.72-1.93,1.45-2.94,2.11A19.07,19.07,0,0,1,283.63,288.93Z" fill="#035694"/><path d="M266.4,136.63c.58.87.38,1.91.57,2.85a35.2,35.2,0,0,1,.76,5.61,44.07,44.07,0,0,1-4.82,7.22,31.22,31.22,0,0,1-10.74,8.16,21.27,21.27,0,0,1-12.81,1.86,22.46,22.46,0,0,1-13-7.12,30.81,30.81,0,0,1-6.09-9.87,9.81,9.81,0,0,0-.85-3.76c-.13-1.48-.36-3-.39-4.45a38.18,38.18,0,0,1,3.1-15.34,35.31,35.31,0,0,1,6.95-10.65,24.3,24.3,0,0,1,13.08-7.51,20.13,20.13,0,0,1,9.29.32,7.84,7.84,0,0,1,5.15,4.4,14.85,14.85,0,0,1,.51,12.38,32.09,32.09,0,0,1-7,10.84,40.35,40.35,0,0,1-14.57,10.14c-.26.11-.51.25-.78.35a.74.74,0,0,0-.44,1,20.65,20.65,0,0,0,.92,2.82,23.24,23.24,0,0,0,8,9.78,4.14,4.14,0,0,0,2.79.71,10.06,10.06,0,0,0,4-1.26,30.35,30.35,0,0,0,6.82-5,42.32,42.32,0,0,0,8.68-12C265.83,137.61,266.12,137.13,266.4,136.63Zm-32.91-1.5c0,.85,0,1.7,0,2.55,0,.43.31.58.74.4a20.58,20.58,0,0,0,4-2.33,34.05,34.05,0,0,0,12.06-14.27,15.78,15.78,0,0,0,.66-11.41,8.07,8.07,0,0,0-2.35-3.73c-.69-.6-.83-.61-1.68-.11a16.74,16.74,0,0,0-5.83,5.76,57.26,57.26,0,0,0-6.23,13.93A29.29,29.29,0,0,0,233.49,135.13Z" fill="#2ec2ac"/><path d="M266.4,136.63a5.58,5.58,0,0,0,.42-2.47c-.23-4-.19-8-.11-11.94.1-5.11.57-10.2,1.18-15.29.84-7.05,1.95-14.06,3.49-21a8.14,8.14,0,0,0,.21-1.47.6.6,0,0,0-.36-.45,3.64,3.64,0,0,0-1-.16A64.42,64.42,0,0,0,244.07,88a41.53,41.53,0,0,0-11.14,6.19c-1.32,1.07-2.66,2.14-4,3.14-1.61,1.18-2.16,1.15-3.81,0a9.41,9.41,0,0,1-1.14-1c-1.18-1.12-1.26-1.5-.26-2.68,4.28-5,9.09-9.37,15.27-12a58.89,58.89,0,0,1,15.36-4.18A73.59,73.59,0,0,1,268.78,77c1.28.08,2.54.29,3.82.42a.79.79,0,0,0,.93-.65c.29-1.17.57-2.35.91-3.51,2.11-7.15,4.11-14.33,6.83-21.28,1-2.52,2.12-5,3.21-7.44a22.23,22.23,0,0,1,1.77-3.15A2.88,2.88,0,0,1,288.52,40a17.24,17.24,0,0,1,7.72,1.16,1.36,1.36,0,0,1,.94,1.5,24,24,0,0,1-.46,3.37c-1.42,5.87-3,11.69-4.59,17.51-1.43,5.21-2.63,10.47-3.93,15.7,0,.14-.06.28-.09.42-.11.71,0,.91.64,1.11.48.15,1,.28,1.44.4,4.77,1.11,9.5,2.39,14.34,3.18a46.83,46.83,0,0,0,4.86.64c4.32.26,8.65.58,13,.44a44.33,44.33,0,0,0,15.61-3,30,30,0,0,0,6.37-3.41A2.52,2.52,0,0,0,345.45,78c-.41-.57-.87-1.19-1.31-1.83a19.53,19.53,0,0,1-3-6.3,5.89,5.89,0,0,1,1.57-5.88,4.53,4.53,0,0,1,4.87-1.26,6.21,6.21,0,0,1,3.14,2.09c2.67,3.29,4.48,6.91,4.35,11.28,0,.21,0,.42,0,.64,0,.57.21.76.76.77a13.43,13.43,0,0,0,4.41-.64,21.12,21.12,0,0,0,8.4-4.88l.3-.3c1.41-1.31,2.23-1.22,3.23.36a8.09,8.09,0,0,1,.59,1.13,2.31,2.31,0,0,1-.77,3c-2.95,2.13-6,4.06-9.7,4.67a58.57,58.57,0,0,1-8.45,1,1.8,1.8,0,0,0-1.48.66c-3.91,4.54-9,7-14.7,8.51a52,52,0,0,1-13.1,1.41,90.8,90.8,0,0,1-19.45-2.1c-5.63-1.17-11.22-2.5-16.82-3.79-1.39-.33-1.66-.27-2,1.25-1.48,7.09-3,14.17-3.85,21.37-.48,3.88-1.09,7.74-1.48,11.62a97,97,0,0,0-.08,21.27,46.21,46.21,0,0,0,1.63,8.14,28.19,28.19,0,0,0,1.57,3.72c.92,1.92,2.28,2.42,4.61,2.18a12.26,12.26,0,0,0,5.67-2.27,20.17,20.17,0,0,0,3.35-2.91,90.39,90.39,0,0,0,9.76-12.87,141.33,141.33,0,0,0,10.19-18.68c.77-1.75,1.41-3.56,2.06-5.36a6.33,6.33,0,0,0,.38-3.55,1.27,1.27,0,0,1,.67-1.43,11.36,11.36,0,0,1,3.23-1.61c1.51-.41,3-.76,4.57-1,2.27-.39,3.43.19,2.43,3a51.21,51.21,0,0,1-2.23,5.3c-2.43,4.89-4.59,9.91-7.12,14.76a135.91,135.91,0,0,1-12.64,20,36.74,36.74,0,0,1-5.73,6.28c-3.28,2.69-6.43,5.56-10.39,7.31a17.69,17.69,0,0,1-7.57,1.78c-5.27-.11-9.65-2.14-12.7-6.59a29.5,29.5,0,0,1-3.77-9,19.93,19.93,0,0,0-1.1-4.09,35.2,35.2,0,0,0-.76-5.61C266.78,138.54,267,137.5,266.4,136.63Zm84.75-67c0-.35,0-.71,0-1.06a1.29,1.29,0,0,0-.58-1.06,4.63,4.63,0,0,0-4.81-.34,4.82,4.82,0,0,0-1.31,7A6.89,6.89,0,0,0,347,76.1a.83.83,0,0,0,1-.06C349.77,74.29,351.28,72.38,351.15,69.65Z" fill="#ef9ea4"/><path d="M315.57,108.1a3.26,3.26,0,0,1,.53,0,1.2,1.2,0,0,1,.94,1.23,2.75,2.75,0,0,1-.16.61,115.73,115.73,0,0,1-7.32,18.13,95.17,95.17,0,0,1-9.07,14.64,32.15,32.15,0,0,1-7,7.06,16.31,16.31,0,0,1-3.77,1.91,9,9,0,0,1-1.44.38c-1,.15-1.66-.09-1.64-.53,0-.77.76-.73,1.23-1a17.27,17.27,0,0,0,5.52-4.26,70.68,70.68,0,0,0,4.85-6.46,168.39,168.39,0,0,0,12.67-22.63,34,34,0,0,0,2.88-7.76,3.24,3.24,0,0,1,.13-.41C314.23,108.12,314.39,108,315.57,108.1Z" fill="#035694"/><path d="M261.08,114.26a90.14,90.14,0,0,1,1.13-12.41c.49-3.22,1.17-6.41,2-9.58.31-1.24.75-2.43,1.18-3.63a1.29,1.29,0,0,1,1.25-.94c.63,0,1,.26.86.86-.13.84-.27,1.68-.45,2.51-1,4.66-1.41,9.39-2,14.11a119.77,119.77,0,0,0-.62,18.06c.09,2.91,0,5.82.05,8.73a4.14,4.14,0,0,1-.27,1.88.43.43,0,0,1-.32.2.42.42,0,0,1-.35-.16,6.65,6.65,0,0,1-.64-2A99.42,99.42,0,0,1,261.08,114.26Z" fill="#035694"/><path d="M268.72,70.55a64.63,64.63,0,0,1,2.89-13,132.17,132.17,0,0,1,6.12-14.71c.18-.38.44-.73.62-1.11.44-.94,1.32-1,2.17-1.07a.8.8,0,0,1,.7.9,9.34,9.34,0,0,1-1,2.55c-.47,1-1,1.89-1.45,2.85a113.7,113.7,0,0,0-6.45,18.66c-.54,2-1.07,4-1.61,6a1.81,1.81,0,0,1-.53,1.13c-.27.2-.53.5-.93.42s-.49-.47-.52-.82S268.72,71.28,268.72,70.55Z" fill="#035694"/><path d="M220.29,145.34c-4-.15-8.09.2-12.14.36l-.42,0c-1.2.11-1.32.22-1.53,1.35-.42,2.23-.81,4.47-1.27,6.69a131.14,131.14,0,0,1-11.32,32.48A60.48,60.48,0,0,1,185,199.17a33.23,33.23,0,0,1-12,8.63,26.93,26.93,0,0,1-5.86,1.9,23.14,23.14,0,0,1-14.94-1.85,6.4,6.4,0,0,1-.92-.52,18.81,18.81,0,0,1-7.13-8.78c-2.51-6.52-2.28-13.08-.43-19.66a35.81,35.81,0,0,1,8.68-15.2,62.88,62.88,0,0,1,19.08-13.38,77.17,77.17,0,0,1,16.24-5.71,60.76,60.76,0,0,1,6.72-1.12c.83-.08,1-.19,1.1-1,.42-2.59.83-5.19,1.18-7.79.38-2.82.73-5.64,1-8.46s.49-5.38.67-8.07.26-5.11.36-7.67c0-.39.18-.81-.13-1.17-.57,0-.61.55-.81.89-1.65,2.81-3.25,5.67-4.93,8.46a84.11,84.11,0,0,1-9.38,12.66,29.27,29.27,0,0,1-8.35,6.53,23.19,23.19,0,0,1-9.62,2.52c-4.55.2-8.08-1.79-10.89-5.23a18.7,18.7,0,0,1-3.87-8,59.4,59.4,0,0,1-1.48-14.38,55.41,55.41,0,0,1,3.48-17.26,73.87,73.87,0,0,1,24.91-33.85,55.63,55.63,0,0,1,13.67-7.75c.66-.26,1.32-.52,2-.84a2.2,2.2,0,0,1,1.81-.23,3.23,3.23,0,0,0,1.45-.16c7-1.35,12.87.66,17.39,6.3a24.7,24.7,0,0,1,4.86,10.77,43.61,43.61,0,0,1-.11,19.65c-.14.55-.19,1.12-.29,1.67a9.34,9.34,0,0,1-.89,2.83.84.84,0,0,1-1,.49c-.07,0-.13-.07-.2-.09-1.17-.27-1.2-.32-1-1.38s.4-2.39.5-3.59a44,44,0,0,0-.69-13.78,20.81,20.81,0,0,0-6.51-10.77,10.24,10.24,0,0,0-4.12-2.14,5.72,5.72,0,0,0-3.15.11,36.26,36.26,0,0,0-12.87,6.44,52.14,52.14,0,0,0-11.32,12.65,91.26,91.26,0,0,0-12.53,29,51.82,51.82,0,0,0-1.45,14.37,6.44,6.44,0,0,0,1.31,4,4.38,4.38,0,0,0,5.67,1.47,25.87,25.87,0,0,0,5.46-3.28,43.7,43.7,0,0,0,7.46-7.55c3.2-4.08,6-8.44,8.8-12.81,2-3.11,3.89-6.28,5.88-9.39a6,6,0,0,0,1-4,101.49,101.49,0,0,1,.19-13.84c0-.21,0-.43.06-.64a2.05,2.05,0,0,1,1.84-2c1.54-.22,3-.91,4.58-.91.42,0,.85,0,1.28,0,1.67,0,2.35.49,2.69,2.12a20.06,20.06,0,0,1,.48,5.07c-.06,1.28-.14,2.56-.18,3.83-.12,4.62-.33,9.23-.21,13.85.18,6.4-.08,12.79-.44,19.18q-.45,8-1.43,15.91c-.22,1.76-.39,3.53-.56,5.3-.05.59.15.78.7.8a1.47,1.47,0,0,0,.21,0l11.48-.65A9.81,9.81,0,0,1,220.29,145.34Zm-25.82,2.52a1.77,1.77,0,0,0-.2,0c-.28,0-.56.07-.84.13a66.57,66.57,0,0,0-19.19,8,56.94,56.94,0,0,0-10.92,8.1c-6.19,6.16-10.2,13.39-11.16,22.19a19,19,0,0,0,2.45,11.88c2.8,4.82,8.2,6.19,13.13,4.15a22.46,22.46,0,0,0,6.63-4.18c1-.91,1.93-1.87,2.86-2.85a41.1,41.1,0,0,0,9.25-14.4,178.15,178.15,0,0,0,8.08-31.51C194.64,148.82,194.82,148.32,194.47,147.86Z" fill="#0476cc"/><path d="M140.24,109.48a58,58,0,0,1,3.13-17.73A67.73,67.73,0,0,1,155.61,70a68.61,68.61,0,0,1,22.72-18,27.14,27.14,0,0,0,4.33-2.29c.41-.3.79-.16,1.21-.11s.85.28.92.74a.85.85,0,0,1-.74.9,21.87,21.87,0,0,0-5.43,2.42A63.55,63.55,0,0,0,163.39,65.9a74.24,74.24,0,0,0-14.53,22.89,66.81,66.81,0,0,0-4.39,16.41,50.68,50.68,0,0,0,1,20.07,40.42,40.42,0,0,0,4.78,11.11c.38.6.7,1.23,1,1.86.05.08,0,.29-.13.36a.4.4,0,0,1-.37.08,3,3,0,0,1-.85-.61c-.9-1.1-1.82-2.19-2.63-3.35A39.49,39.49,0,0,1,141,119c-.36-2-.56-3.94-.74-5.92C140.15,111.9,140.24,110.69,140.24,109.48Z" fill="#035694"/><path d="M135.7,185.12a36.49,36.49,0,0,1,8.71-22.82,54.14,54.14,0,0,1,10.85-9.53,77.3,77.3,0,0,1,21.46-10.66c1.55-.5,3.09-1.05,4.64-1.57a1.86,1.86,0,0,1,.81-.08c.35,0,.72.19.78.6s-.3.6-.65.68a60.34,60.34,0,0,0-26.87,13.15,50.36,50.36,0,0,0-14.55,20.71,41.87,41.87,0,0,0-2.23,20.12,2.05,2.05,0,0,1-.05,1.25c0,.07-.27.11-.37.07-.36-.16-.45-.54-.56-.86A30,30,0,0,1,135.7,185.12Z" fill="#035694"/><path d="M195.41,77.37a57.61,57.61,0,0,1-2.29,15.53,65.23,65.23,0,0,1-4.77,12,36.56,36.56,0,0,1-4.37,7c-.86,1-1.5,2.2-2.38,3.22a40.22,40.22,0,0,1-10.26,8.8,6.35,6.35,0,0,1-2.36.9.5.5,0,0,1-.39-.13.35.35,0,0,1,0-.54c.7-.6,1.39-1.22,2.12-1.77a45.32,45.32,0,0,0,5.31-5.15c1.78-1.84,3.09-4,4.74-6a23.65,23.65,0,0,0,1.58-2.51,63.14,63.14,0,0,0,5-9.34A67.63,67.63,0,0,0,191.2,88.2a50.59,50.59,0,0,0,1.41-15.84,3,3,0,0,1,.09-1,2.28,2.28,0,0,1,1.72-.54,1,1,0,0,1,.55.86c.15,1.34.31,2.68.43,4A16.26,16.26,0,0,1,195.41,77.37Z" fill="#035694"/><path d="M162.68,198.58a4.9,4.9,0,0,1-3.29-1c-.27-.24-.58-.45-.43-.87s.41-.34.69-.37a7.51,7.51,0,0,1,1.06,0,10.73,10.73,0,0,0,6.61-2.45,25.1,25.1,0,0,0,5.1-5.09,65.27,65.27,0,0,0,7-11.42A116,116,0,0,0,187.15,156a15.79,15.79,0,0,0,.3-1.67c.06-.35.11-.74.5-.87a1.49,1.49,0,0,1,1.38.34c.24.17.23.48.16.78-.74,3.1-1.41,6.22-2.23,9.3a107,107,0,0,1-5.48,15.87,49.59,49.59,0,0,1-7.07,11.83,19,19,0,0,1-8.84,6.37A26.56,26.56,0,0,1,162.68,198.58Z" fill="#035694"/><path d="M311.22,294.84a6.33,6.33,0,0,0,.64-.83,4.27,4.27,0,0,1,3.54-2,25.28,25.28,0,0,1,6,0,6.82,6.82,0,0,1,1.24.31c1,.32,1.18.63,1,1.74A65.29,65.29,0,0,1,321,305.63q-4.46,14-8.87,28a1.61,1.61,0,0,0-.1,1.22c.66-.3.85-1,1.2-1.48a99.11,99.11,0,0,1,11.37-14.6,50.17,50.17,0,0,1,8.77-7.42,12.33,12.33,0,0,1,7-2,25.87,25.87,0,0,1,6.32.79,7.43,7.43,0,0,1,5.58,5.33,20.92,20.92,0,0,1,.93,4.58,46,46,0,0,1-.23,8.93c-.34,3-.75,5.92-1.26,8.86A116.58,116.58,0,0,1,348.75,350q-2.76,9.62-5.47,19.25a140.2,140.2,0,0,0-3.85,17.88,41,41,0,0,0-.22,12.32,8,8,0,0,0,1.57,4.19,18.24,18.24,0,0,0,3.17-3.1,64.29,64.29,0,0,0,5.91-7.81c3.95-6.07,7.31-12.49,10.9-18.78,5.56-9.76,10.23-19.95,14.91-30.15,3.28-7.16,6.6-14.31,9.8-21.51,2.13-4.8,4.1-9.67,6.1-14.53.82-2,1.62-3.94,2.58-5.85a21.47,21.47,0,0,0,1.51-4.2,2.39,2.39,0,0,1,2.07-1.86,9.62,9.62,0,0,1,1.06-.14,30,30,0,0,1,10.54,1.12,9,9,0,0,1,2.34,1,1.1,1.1,0,0,1,.44,1.64,2.75,2.75,0,0,1-.2.38,45.37,45.37,0,0,0-3.15,6.27c-1.88,4.13-3.95,8.18-5.81,12.32-3.5,7.78-7.2,15.45-10.88,23.13-2.36,4.93-4.61,9.91-7,14.84-1.26,2.62-2.58,5.22-4,7.76-2.86,5.15-5.7,10.32-8.95,15.25-2.34,3.56-5,6.93-7.62,10.24-1.11,1.39-2.25,2.75-3.36,4.14a59,59,0,0,1-7.68,8,40.7,40.7,0,0,1-17.94,8.9,10.65,10.65,0,0,1-5.68-.19,6.4,6.4,0,0,1-3.83-3.17,12.89,12.89,0,0,1-1.26-3.38,49.38,49.38,0,0,1-1.14-14.39c.55-8.47,2.41-16.72,4.22-25,1.27-5.83,2.87-11.57,4.5-17.31,1.47-5.19,2.64-10.45,3.84-15.71,1-4.23,1.86-8.46,2.79-12.69a6.9,6.9,0,0,0,.23-2.47c-.49-.14-.72.18-1,.38a47.65,47.65,0,0,0-8.35,7.89,89.07,89.07,0,0,0-9.08,12.6,214.75,214.75,0,0,0-18.06,40.37c-.5,1.48-.93,3-1.42,4.47-.25.73-.59,1.44-.86,2.17a4,4,0,0,1-3.73,2.7,48.27,48.27,0,0,0-6.11.73,2.64,2.64,0,0,1-.63,0c-1.66-.06-2.18-.73-1.77-2.32.3-1.17.68-2.31,1-3.47,2.54-8.8,4.86-17.66,6.71-26.63,2.13-10.37,4.57-20.66,7.23-30.9,1.31-5.08,2.37-10.24,4-15.23.38-1.15.74-2.3,1.11-3.45a.57.57,0,0,0-.23-.72l0,.07c.17.14.37.13.39-.08s-.22-.25-.34-.38c.07-.26.11-.54.2-.8l2.52-7.14a2.33,2.33,0,0,0,.24-1.42l0,.05C311.27,295.22,311.27,295,311.22,294.84Z" fill="#ef9ea4"/><path d="M316.15,391.84a112,112,0,0,1,1.21-13.55c.59-3.92,1.35-7.82,2.12-11.71.83-4.25,1.86-8.44,3-12.62,2-7.48,4.6-14.75,7-22.11a1.71,1.71,0,0,1,1.19-1.09.68.68,0,0,1,.84.68,2.63,2.63,0,0,1-.13.62c-2,5.92-3.43,12-4.87,18.06-1.08,4.55-2.07,9.12-3.07,13.69-1.25,5.75-2.15,11.56-2.95,17.39-.58,4.23-.91,8.46-1.14,12.71a39.62,39.62,0,0,0,.29,8.07c.09.63.23,1.25.36,1.88a5.85,5.85,0,0,0,2.63,4.19.67.67,0,0,1,.3.51.69.69,0,0,1-.57.55,2.3,2.3,0,0,1-1.82-.33,5.83,5.83,0,0,1-2.2-2.54,18,18,0,0,1-1.63-5.7A48.64,48.64,0,0,1,316.15,391.84Z" fill="#035694"/><path d="M283.17,384.5a46.92,46.92,0,0,1,1.24-7.38c2-8.64,4-17.28,6.11-25.89,2.18-8.89,4.48-17.75,6.72-26.62.89-3.5,1.81-7,2.68-10.52a1.25,1.25,0,0,1,1.16-1c.57-.08,1.06.2,1,.71a7.55,7.55,0,0,1-.19,1.25q-1.85,7.88-3.71,15.75c-2.23,9.32-4.44,18.64-6.74,27.94-1.82,7.37-3.76,14.71-5.67,22.05-.31,1.17-.75,2.3-1.15,3.43a3.19,3.19,0,0,1-.53.91.67.67,0,0,1-.54.26c-.15,0-.28-.29-.35-.48A1,1,0,0,1,283.17,384.5Z" fill="#035694"/><path d="M373.65,333.84c-.15.39-.34.84-.53,1.3-1.85,4.46-3.95,8.8-6,13.17q-6.39,13.57-12.75,27.18a118.54,118.54,0,0,1-8.63,15.65,15.1,15.1,0,0,1-3.36,3.81.38.38,0,0,1-.37,0,.43.43,0,0,1-.06-.37,2.16,2.16,0,0,1,.28-.57A119.45,119.45,0,0,0,349,381.7c3.39-6.56,6.18-13.4,9.32-20.07,2.87-6.11,5.8-12.18,8.71-18.26q2.06-4.33,4.09-8.66c.22-.45.4-.92.65-1.34a1.14,1.14,0,0,1,1.68,0A2.46,2.46,0,0,1,373.65,333.84Z" fill="#035694"/><path d="M152.35,448.53a50.16,50.16,0,0,1-14.28-2.28,67.75,67.75,0,0,1-8.32-3.11,63.87,63.87,0,0,1-8.36-4.58,24,24,0,0,1-2.36-1.79c-1-.8-2-1.48-3-2.31a58.35,58.35,0,0,1-11-12.26c-1.4-2.13-2.91-4.19-4.19-6.4a54.15,54.15,0,0,1-5.17-12.56,47.78,47.78,0,0,1-1.21-5,39.29,39.29,0,0,1,.94-17.71c.27-.95.6-1.89.89-2.84,1.47-4.9,4.62-8.75,8-12.46A53.12,53.12,0,0,1,115.94,356a51.53,51.53,0,0,1,10.72-5.13,57.6,57.6,0,0,1,7.86-1.88,5.25,5.25,0,0,1,5.11,1.87c2.43,2.59,4.43,5.5,6.62,8.27a3.37,3.37,0,0,1,.65,1.33,1.08,1.08,0,0,1-.67,1.38,5.37,5.37,0,0,1-2.63.74c-.56,0-1.13.07-1.7.05a41.42,41.42,0,0,0-9.3.8,28.76,28.76,0,0,0-10,3.95,29.25,29.25,0,0,0-11.44,12.85,27.13,27.13,0,0,0-2.39,13.25c.34,6.73,2.72,12.71,6.17,18.36a50.89,50.89,0,0,0,7.25,9.17,38.51,38.51,0,0,0,12.91,8.46,45.14,45.14,0,0,0,14.44,3.42,39.13,39.13,0,0,0,19.62-4,38.06,38.06,0,0,0,10.9-7.69,25.74,25.74,0,0,0,7.47-15.63,33.61,33.61,0,0,0-3.68-19,70.58,70.58,0,0,0-6.17-9.93,104.25,104.25,0,0,0-7.6-9.18c-5.11-5.62-10.24-11.23-15-17.17a67.73,67.73,0,0,1-7.63-11.77,34.2,34.2,0,0,1-3.7-11.27c-.86-7.05.9-13.22,6.16-18.22a27.81,27.81,0,0,1,13.65-7,52.86,52.86,0,0,1,19.9-.21A55.08,55.08,0,0,1,194,304.57a.78.78,0,0,0,1.08-.37c.46-.88.94-1.75,1.36-2.65a103.2,103.2,0,0,1,10.7-17.63c1.74-2.34,3.77-4.44,5.68-6.63a2.57,2.57,0,0,1,1.86-.86,4.63,4.63,0,0,1,2.1.22c1.51.62,3,1.28,4.44,2,1,.53,1.12,1.35.34,2.29-1,1.2-2.09,2.32-3.09,3.52s-1.76,2.23-2.57,3.39c-3.51,5-7.18,9.88-10.44,15.06-1,1.56-2,3.12-2.94,4.69-.42.69-.35.86.33,1.4s1.59,1.2,2.34,1.84c5.29,4.56,5.81,12.75.15,18.32a8.05,8.05,0,0,1-5.18,2.22,16.17,16.17,0,0,1-5.49-.57,5.68,5.68,0,0,1-3.24-2.27,9.78,9.78,0,0,1-1.88-5.34,28.32,28.32,0,0,1,1.58-10.68c.75-2.27,1.14-1.84-1.17-3a28.15,28.15,0,0,0-17.59-2.65,24.87,24.87,0,0,0-10.12,4.26,11.78,11.78,0,0,0-4.26,5.19,17.17,17.17,0,0,0-.86,12.25,32.64,32.64,0,0,0,3.73,8.09,72,72,0,0,0,5.84,8.12c3.71,4.3,7.41,8.6,11.36,12.7,5,5.21,10.13,10.36,14.71,16a55.56,55.56,0,0,1,9.1,15.07A30.93,30.93,0,0,1,203.76,404c-.21,1.55-.33,3.11-.56,4.65a23.45,23.45,0,0,1-.7,3.33,56.49,56.49,0,0,1-7.78,16.25A46.89,46.89,0,0,1,172,445.42,53.76,53.76,0,0,1,152.35,448.53ZM198.19,328a9.37,9.37,0,0,0,2.94-7.11c0-2.6-.73-4.86-2-6.14C197.79,319.1,196.5,323.33,198.19,328Z" fill="#2ec2ac"/><path d="M84.38,390a47.88,47.88,0,0,1,7.08-25.48,45,45,0,0,1,12-13.09,34.47,34.47,0,0,1,12.62-6.27,4.25,4.25,0,0,0,.75-.33A7.59,7.59,0,0,1,119,344c2-.23,3.82-1.06,5.79-1.27a19.45,19.45,0,0,1,5.7-.14,1.06,1.06,0,0,1,1,.94,1.19,1.19,0,0,1-.85,1.3,10.44,10.44,0,0,1-1.46.28c-2.11.29-4.24.43-6.3.87a32.44,32.44,0,0,0-5.87,1.82,47.94,47.94,0,0,0-11.19,6.43,45.3,45.3,0,0,0-16,25,53.53,53.53,0,0,0-1.21,19.45,56.46,56.46,0,0,0,10,26c.39.57,1,1.07,1,1.83a.48.48,0,0,1-.15.37.42.42,0,0,1-.38,0,4.31,4.31,0,0,1-1.52-1.45,56.21,56.21,0,0,1-7.21-11,57.71,57.71,0,0,1-5.92-20.76C84.29,392.44,84.38,391.22,84.38,390Z" fill="#035694"/><path d="M153.29,357.58c.12,0,.29-.15.35-.1a11.37,11.37,0,0,1,1.3,1.09,119,119,0,0,1,17.75,22,55.21,55.21,0,0,1,7.71,19.93,27.67,27.67,0,0,1-.24,11.21,19,19,0,0,1-5.58,9.82,25.72,25.72,0,0,1-7.94,5.13,29.9,29.9,0,0,1-6.56,1.65,43.53,43.53,0,0,1-9.34.39,5.77,5.77,0,0,1-1.24-.23.72.72,0,0,1-.5-.63.74.74,0,0,1,.34-.72,2.12,2.12,0,0,1,1.39-.39c1.71,0,3.41,0,5.11-.06a25.37,25.37,0,0,0,11.38-3.16,16.48,16.48,0,0,0,5.37-5,22.21,22.21,0,0,0,4-12.55,38.46,38.46,0,0,0-1.34-11.15,79.75,79.75,0,0,0-12.08-25,113.51,113.51,0,0,0-8.32-10.25,6.8,6.8,0,0,1-1.56-2Z" fill="#035694"/><path d="M139.43,323.88a43.53,43.53,0,0,0,1.88,11.78c.45,1.5,1,3,1.43,4.47a5.06,5.06,0,0,1,.19,1c0,.09-.15.24-.26.29a.46.46,0,0,1-.38,0,3.63,3.63,0,0,1-1-1.34,37.62,37.62,0,0,1-5.12-15,24,24,0,0,1,2.92-14.78,25.13,25.13,0,0,1,6.66-7.67,35.43,35.43,0,0,1,8.08-4.65,54.38,54.38,0,0,1,13.32-3.64,64.94,64.94,0,0,1,11.67-.69c3.4.11,6.77.51,10.17.6.77,0,1.31.51,2,.7a.55.55,0,0,1,.42.64.87.87,0,0,1-.58.82,2.44,2.44,0,0,1-1,.05,56,56,0,0,0-10.81-.73,86.55,86.55,0,0,0-11.25.77A57.9,57.9,0,0,0,158,298.8a32.27,32.27,0,0,0-7.94,4A22.22,22.22,0,0,0,140,318.21,42.28,42.28,0,0,0,139.43,323.88Z" fill="#035694"/><path d="M182.39,322.56a22.84,22.84,0,0,1,1.59-7.7,4.73,4.73,0,0,1,.93-1.65.76.76,0,0,1,.75-.28.58.58,0,0,1,.4.66c0,.43-.1.85-.17,1.26a40.15,40.15,0,0,0-.63,8.47,20.32,20.32,0,0,0,1.41,6.84,10.51,10.51,0,0,0,1.24,2.22c2.28,3.1,5.37,4,9,3.29a22.14,22.14,0,0,0,3-1,1.72,1.72,0,0,1,1-.2c.13,0,.33.1.35.2s.07.5,0,.59a9.81,9.81,0,0,1-3.3,1.86,10.62,10.62,0,0,1-12.48-3.78A17.79,17.79,0,0,1,182.39,322.56Z" fill="#035694"/><path d="M152.85,357.17l-.17-.31c.33,0,.23.18.13.35Z" fill="#035694"/><path d="M153.33,357.55l-.48-.38,0,0c.39-.17.6-.12.48.37Z" fill="#035694"/><path d="M253.38,326.77c-.19-.06-.47-.22-.55-.15-1.2,1.1-2.38,2.23-3.57,3.35a1.25,1.25,0,0,0-.34,1.17,65.43,65.43,0,0,1,.34,11.28c-.35,9.69-1.67,19.22-5.07,28.39a66,66,0,0,1-3.67,8.83,26.37,26.37,0,0,1-7.41,8.68,36.4,36.4,0,0,1-10.92,5.62c-5,1.6-9.25.35-12.73-3.49A25.29,25.29,0,0,1,203.64,379a38.52,38.52,0,0,1-.89-7.18,59.35,59.35,0,0,1,1.56-16.69c.34-1.38.48-2.8.82-4.18a52.18,52.18,0,0,1,9-19.15,3,3,0,0,0,.78-2.87,7.51,7.51,0,0,1,1.17-5.71,18.68,18.68,0,0,1,12.33-9.06,27.05,27.05,0,0,1,7.62-.58,9.83,9.83,0,0,1,5.85,2.27,15.5,15.5,0,0,1,4.41,5.65c.33.71.66,1.41,1,2.12a5.58,5.58,0,0,0,2.21-1.36,33.18,33.18,0,0,1,7.61-4.65,7.26,7.26,0,0,1,1-.26Q255.73,322.05,253.38,326.77Zm-34.57,10.37c-.26.78-.49,1.44-.71,2.11a79.78,79.78,0,0,0-2.83,12.86,60,60,0,0,0-.15,17.39,31.53,31.53,0,0,0,4.24,11.95,3.21,3.21,0,0,0,1,1.31,6.19,6.19,0,0,0,4.42,1,8.23,8.23,0,0,0,5.57-3.53c.27-.41.59-.79.89-1.19a28.05,28.05,0,0,0,5.08-10.42,130.12,130.12,0,0,0,3.38-23.12c.13-2.34,0-4.68,0-7a2.1,2.1,0,0,0-.46-1.61,4.52,4.52,0,0,0-.8.22,26.76,26.76,0,0,1-9.21,2.4,14.16,14.16,0,0,1-4.85-.24A31.39,31.39,0,0,1,218.81,337.14Zm3.48-8.94a3.57,3.57,0,0,0,1.91,3.62,7.94,7.94,0,0,0,5.67,1.2,26.54,26.54,0,0,0,8-3.33.94.94,0,0,0,.45-1.24,27.92,27.92,0,0,0-3.19-7.6,13.65,13.65,0,0,0-3.59-3.87,1.08,1.08,0,0,0-1.35,0,19.79,19.79,0,0,0-6.79,6.88A7.83,7.83,0,0,0,222.29,328.2Z" fill="#fccb42"/><path d="M235.58,346.27a95.69,95.69,0,0,1-2.12,19,41.42,41.42,0,0,1-3.66,10,12.73,12.73,0,0,1-2.9,3.63,5.68,5.68,0,0,1-2.62,1.35,2,2,0,0,1-1.44-.17c-.23-.14-.33-.59-.13-.73a2.71,2.71,0,0,1,.73-.39,4.41,4.41,0,0,0,2.31-1.8,16.46,16.46,0,0,0,2.34-4.27A75.27,75.27,0,0,0,232.21,357a82.52,82.52,0,0,0,1-14.22c0-1.18.24-1.51,1.33-1.81a.68.68,0,0,1,.86.42,2.94,2.94,0,0,1,.2,1C235.6,343.71,235.58,345,235.58,346.27Z" fill="#035694"/><path d="M253.38,326.77q2.34-4.72,4.69-9.43a13.27,13.27,0,0,1,5.24-4.53,2.79,2.79,0,0,0,1.25-1.1c2.19-3.45,5.51-4.95,9.44-5.32a29.54,29.54,0,0,1,5.72-.07,10.36,10.36,0,0,1,8,4.94c.38.59.77,1.17,1.17,1.75,0,.05.12.07.24.14a71.91,71.91,0,0,0,10.15-7.59c3.33-3,6.6-6,9.93-9,.56-.49,1-1.24,1.83-1.33a2.33,2.33,0,0,1-.24,1.42l-2.52,7.14c-.09.26-.13.54-.2.8s0,.31-.05.46l0-.07c-.57,0-.86.44-1.24.73-3.43,2.64-6.86,5.29-10.53,7.6-1.69,1.05-3.41,2-5.19,2.94-.94.48-.94.49-.73,1.44a49.12,49.12,0,0,1,0,19.88,85.76,85.76,0,0,1-6.89,20.75,87.31,87.31,0,0,1-4.58,8.86,34.07,34.07,0,0,1-6.4,7.35,18.64,18.64,0,0,1-8.26,4.18,7.22,7.22,0,0,1-6.58-1.56,6.75,6.75,0,0,0-.65-.55c-2.64-1.61-4-4.14-5-6.94a35.34,35.34,0,0,1-1.91-10,120.16,120.16,0,0,1,1.75-27.37A22.61,22.61,0,0,1,253.38,326.77Zm13-6.42c-.2.47-.35.79-.46,1.11a92.21,92.21,0,0,0-3.66,13.77,86.59,86.59,0,0,0-1.49,23.93,25.65,25.65,0,0,0,2,8.23,1.4,1.4,0,0,0,1.49.93,8,8,0,0,0,4.79-2,21.54,21.54,0,0,0,2.76-2.64,18.06,18.06,0,0,0,3.21-5,96.43,96.43,0,0,0,6.46-24,50.38,50.38,0,0,0-.09-12.75c-.05-.39,0-.87-.46-1.08C276.08,322,271.27,322.59,266.37,320.35Zm11.05-2.86c.78-.05,1.56-.09,2.33-.17.42,0,.59-.35.47-.76s-.18-.54-.28-.8a13.83,13.83,0,0,0-3.89-6c-.66-.55-.89-.57-1.46,0a16.92,16.92,0,0,0-1.74,1.85,5,5,0,0,0-1.12,3.15,1.94,1.94,0,0,0,1.33,1.95A12,12,0,0,0,277.42,317.49Z" fill="#eb5822"/><path d="M278.46,329.72a93.64,93.64,0,0,1-3.73,22,33.94,33.94,0,0,1-3.44,8.21,10.22,10.22,0,0,1-3.9,3.82,2,2,0,0,1-2,.07.69.69,0,0,1-.33-.49c0-.17.11-.49.24-.53,1.63-.56,2.38-1.93,3.15-3.3a44.8,44.8,0,0,0,3.39-7.78,83.39,83.39,0,0,0,3.69-16.35,60.47,60.47,0,0,0,.6-8.06c0-.36,0-.71,0-1.06.05-.92.28-1.12,1.18-1.06s1.17.3,1.16,1.36S278.46,328.65,278.46,329.72Z" fill="#035694"/></svg>