<svg xmlns="http://www.w3.org/2000/svg" viewBox="0 0 500 500"><g id="OBJECTS"><path d="M367.28,247.81c-1.56-.53-15-15.31-18.39-19.05-2.25-2.44-4.24,4.58-4.24,4.58s12.16,19.06,16.28,22.59c4.43,3.81,38.42,7.13,44.09,10.52,2.17,1.3,4.6,1.16,6.07-.9,2-2.8,1.52-10.65-9.84-16.12C397.76,247.75,377.94,251.43,367.28,247.81Z" fill="#f67e7d"/><path d="M348.89,228.76s-1.1-.79-1.1-3.16-.88-5.69-.88-6.57.41-2.58-.56-1.68c-1.7,1.56-1.19,3.18-1.12,4.12s.35,2.14-.58,2.2a5.45,5.45,0,0,1-5.24-1.76c-2.18-2.27-4.68-3.74-4.62-3s4.75,4.84,4.56,5.25c-.37.8-7.19-3.69-7.56-2.69s6.56,4.31,6.56,4.31S332,223,331.77,224s7,3.88,7,3.88-4.82-1.23-5-.38l4.81,1.94a67.79,67.79,0,0,1,6.11,3.87C346.48,234.78,348.89,228.76,348.89,228.76Z" fill="#f67e7d"/><path d="M282.78,121.65v56.09a5.36,5.36,0,0,0,9.22,3.67c2.4-2.51,8.43-4.87,9.8-4.87,12,0,17.6,9.7,17.6,21.66s-5.64,21.66-17.6,21.66c-1.37,0-7.4-2.35-9.8-4.87a5.36,5.36,0,0,0-9.22,3.67V312L403.47,207C511.19,113.35,376.53-13.53,282.78,121.65Z" fill="#2f364c"/><text transform="translate(319.57 219.31)" font-size="143.73" fill="#fff" font-family="Tastysushi">ve</text><path d="M432.45,302.74l-6.35,54.05s11,20.62-2.53,50.39c0,0,5.8,3.41,4,6.94-2.28,4.56-24.69,19.21-24.86,14.93s5.45-4.59,9.51-23.7c5.9-21.33-.48-47.81-.58-50.71-.54-15.9,1.3-52.91,1.3-52.91Z" fill="#f67e7d"/><path d="M423.57,407.18a12.48,12.48,0,0,1-3.19,8.64c-1.42,1.66-2.67,6.09-5.11,7.95-3.76,2.88-9.54,1.22-9.68-.44-7.11,3.52-10.23,8.88-.86,8.05,4.55-.4,13.92-.73,19.07-9.35,1.67-2.8,4.65-5.24,4.85-7.43C429.48,405.61,423.57,407.18,423.57,407.18Z" fill="#3f222c"/><polygon points="427.54 429.08 425.88 429.25 424.69 415.98 428.47 414.44 427.54 429.08" fill="#3f222c"/><path d="M435.52,308.59l-6.35,54.05s11,20.62-2.53,50.38c0,0,5.8,3.42,4,6.94-2.28,4.57-24.69,19.22-24.86,14.94s5.46-4.59,9.51-23.71c5.9-21.33-.48-47.8-.58-50.7-.54-15.9,1.3-52.91,1.3-52.91Z" fill="#ffb997"/><path d="M426.64,413a12.51,12.51,0,0,1-3.19,8.65c-1.42,1.66-2.67,6.09-5.11,7.95-3.76,2.88-9.54,1.22-9.68-.45-7.11,3.53-10.23,8.89-.86,8.06,4.56-.4,13.92-.73,19.07-9.35,1.67-2.81,4.65-5.24,4.85-7.43C432.55,411.46,426.64,413,426.64,413Z" fill="#4f323b"/><polygon points="430.61 434.93 428.95 435.1 427.76 421.83 431.54 420.29 430.61 434.93" fill="#4f323b"/><path d="M356.76,249.57c-1.56-.53-15-15.31-18.39-19-2.25-2.45-4.24,4.58-4.24,4.58s12.16,19,16.28,22.58c4.43,3.81,38.41,7.13,44.09,10.53,2.17,1.3,4.6,1.16,6.07-.9,2-2.81,1.52-10.65-9.84-16.13C387.24,249.51,367.42,253.19,356.76,249.57Z" fill="#ffb997"/><path d="M338.37,230.53s-1.1-.79-1.1-3.17-.88-5.69-.88-6.56.41-2.58-.56-1.69c-1.7,1.57-1.19,3.19-1.12,4.13s.35,2.14-.58,2.19a5.43,5.43,0,0,1-5.24-1.76c-2.18-2.26-4.68-3.73-4.62-3s4.75,4.84,4.56,5.24c-.37.81-7.19-3.68-7.56-2.68s6.56,4.31,6.56,4.31-6.34-2.75-6.58-1.75,6.95,3.88,6.95,3.88-4.81-1.23-5-.38l4.81,1.94a65.5,65.5,0,0,1,6.11,3.87C336,236.55,338.37,230.53,338.37,230.53Z" fill="#ffb997"/><path d="M391.18,242.19a15.06,15.06,0,0,1,2.75,2.3c.22.22.43.44.63.67a29.42,29.42,0,0,1,4.15,6.28s20.41,1.17,16.39-2c-5.69-4.48-7.46-8.11-7.94-10.34A7.22,7.22,0,0,1,407,238a3.85,3.85,0,0,1,.11-1.28s-3.07.42-6.56,1.1C395.05,238.83,388.52,240.52,391.18,242.19Z" fill="#ffb997"/><path d="M391.18,242.19a15.06,15.06,0,0,1,2.75,2.3c2.63,1.36,7.24,2.11,14.34-2.05C406.93,243,391.18,242.19,391.18,242.19Z" fill="#f67e7d"/><path d="M429.09,290.47S434.31,293.8,438,304c7.75,21.32,18.35,69.36,13,73.32-18.09,13.41-28.5,22.18-66.46,2.18-3.83-2,11.27-80.29,18.25-85.56S429.09,290.47,429.09,290.47Z" fill="#0b032d"/><path d="M402.81,293.93l26.28-3.46s-1.77-19.82-3.07-26.32c-3.53-17.57-7.76-14.52-10.07-14.68-7.52-.53-33.41-2.37-27.87,1.28,9.56,6.31,1.2,15.7,1.2,15.7C387.31,274.24,402.81,293.93,402.81,293.93Z" fill="#0b032d"/><path d="M381.13,235a17.91,17.91,0,0,0-.52,4.18c.07,2.64,1.27,4.54,4.76,5.41,7.62,1.89,23.19-1.83,25.38-10.64s-2.21-17.49-9.83-19.38-14.77,0-17.76,12.52C382.47,230,381.65,232.63,381.13,235Z" fill="#ffb997"/><path d="M385.44,217.05c-.77,3.07,6.6,5,5.59,16.79-.38,4.53,9.68-7.27,8.85-5.64-10,19.62,31.59,58.3,34.57,52.47,5.64-11.07,2.4-41.57-11.13-49.79-9.34-5.68-11.12-18.71-18.64-21.32C398.42,207.39,386.48,212.86,385.44,217.05Z" fill="#db5a5a"/><path d="M394.89,233.33c-.05,2.4.72,1.11,2.19,1.14s4.77-3.35,4.82-5.75-1.71-2.88-3.18-2.9S394.94,230.93,394.89,233.33Z" fill="#ffb997"/><path d="M395.7,232.08c-1.26.79.45.69,1.37.71s3-2.09,3-3.59-1.27-2.39-2-1.82C396.14,228.93,397.85,230.73,395.7,232.08Z" fill="#f67e7d"/><path d="M383.94,224.34s-.58,2.44-4,4.22,2.07,3.51,2.07,3.51Z" fill="#843b62"/><path d="M381.13,235a17.91,17.91,0,0,0-.52,4.18c1.86.12,3.92-2.21,4.19-3.28s-1.58-.39-3.53-.87A.35.35,0,0,0,381.13,235Z" fill="#ffe7dc"/><path d="M384.27,225.3c-.42,1.68-.25,3.16.39,3.32s1.48-1.08,1.89-2.75.25-3.17-.38-3.33S384.69,223.62,384.27,225.3Z" fill="#ffe7dc"/><path d="M384.06,225.25c-.26,1.06-.15,2,.25,2.11s.94-.68,1.21-1.75.15-2-.25-2.11S384.33,224.18,384.06,225.25Z" fill="#4f323b"/><path d="M384.9,221.83a1.74,1.74,0,0,1,.83-.73,1.3,1.3,0,0,1,1.15.09,2.08,2.08,0,0,1,.75.81,6.35,6.35,0,0,1,.39,1l0,0a5.81,5.81,0,0,0-.5-.92,2,2,0,0,0-.73-.65,2.27,2.27,0,0,0-1.83.41Z" fill="#e9e2d0"/><path d="M130.78,188.49s.78-1.12,0-3.36-1.05-5.65-1.34-6.48-1.24-2.3,0-1.78c2.12.92,2.17,2.62,2.43,3.52s.37,2.14,1.26,1.88a5.4,5.4,0,0,0,4.36-3.39c1.31-2.86,3.19-5.08,3.38-4.35s-2.88,6.13-2.57,6.45c.62.64,5.56-5.85,6.25-5s-4.77,6.24-4.77,6.24,5.07-4.7,5.63-3.83-5.28,6-5.28,6,4.14-2.75,4.59-2l-3.9,3.42a69.44,69.44,0,0,0-4.49,5.67C135.05,193.37,130.78,188.49,130.78,188.49Z" fill="#f67e7d"/><path d="M119.73,212.54c1.29-1,7.78-19.66,9.78-24.32,1.32-3.05,7.79,3.07,7.79,3.07s-6.18,22.12-8.89,26.81c-2.93,5.07-33.9,19.44-38.13,24.53-1.62,1.94-4,2.61-6,1.15-2.81-2-5-9.55,3.95-18.47C91,222.57,110.86,219.49,119.73,212.54Z" fill="#0b032d"/><path d="M245.18,176.54c-1.37,0-7.4,2.36-9.8,4.87a5.36,5.36,0,0,1-9.22-3.67s0,0,0,0v-56l-.23.33C132.88-12.7-2,114,105,207L225.92,312.2l.23-.21V218.7s0,0,0,0a5.36,5.36,0,0,1,9.22-3.67c2.4,2.52,8.43,4.87,9.8,4.87,12,0,17.6-9.7,17.6-21.66S257.14,176.54,245.18,176.54Z" fill="#db5a5a"/><text transform="translate(141.1 221.18)" font-size="143.73" fill="#fff" font-family="Tastysushi">Lo</text><path d="M71.77,405c-.47-2.54-1.44-5.41-1.66-8.17,0,0-9.33.16-9.67,0,.81,2.41,1.37,6.32,2.52,8.84,0,0-4.45,5-2.69,8.48,2.29,4.57,31.83,4.94,32,.67S80.51,410.12,71.77,405Z" fill="#f67e7d"/><path d="M60.94,402.67s4.26,4.6,11.63,1.23c20.87,8.13,22.7,9,21.2,11.63s-10.66,4.18-22.83,3.34S58.34,414,59.22,410.2,60.94,402.67,60.94,402.67Z" fill="#0b032d"/><path d="M71.7,396.87h0c-1.63-19.67,2.17-55.56,2.26-58.1.54-15.9,12-58.77,12-58.77L50.7,282.4s.68,41.44,0,55.79c-.7,14.64-.31,33.88,8.51,59.87h0C59.56,398.22,66.12,401.1,71.7,396.87Z" fill="#3f222c"/><path d="M84.81,415c-.47-2.54-1.45-5.41-1.67-8.17,0,0-9.32.16-9.66,0,.81,2.41,1.37,6.32,2.52,8.84,0,0-4.45,5-2.69,8.48,2.29,4.57,31.83,4.94,32,.67S93.55,420.09,84.81,415Z" fill="#ffb997"/><path d="M74,412.63s4.26,4.61,11.63,1.24c20.87,8.13,22.7,9,21.2,11.63S96.14,429.67,84,428.84s-12.6-4.84-11.72-8.67S74,412.63,74,412.63Z" fill="#2f364c"/><path d="M84.74,406.84h0c-1.63-19.67,2.17-55.56,2.26-58.1.55-15.9,6-62.45,6-62.45l-39.85-.88s8.68,46.25,10,61.87c1.29,15.3.27,34.77,9.09,60.76h0C72.6,408.19,79.16,411.07,84.74,406.84Z" fill="#4f323b"/><path d="M154.72,202.94s1.1-.79,1.1-3.17.88-5.69.88-6.56-.4-2.58.56-1.69c1.7,1.57,1.19,3.19,1.13,4.13s-.36,2.14.57,2.19a5.42,5.42,0,0,0,5.24-1.76c2.18-2.26,4.69-3.73,4.62-3s-4.75,4.84-4.56,5.24c.38.81,7.19-3.68,7.56-2.68s-6.56,4.31-6.56,4.31,6.34-2.75,6.58-1.75-7,3.88-7,3.88,4.81-1.23,5-.38l-4.82,1.94a65.5,65.5,0,0,0-6.11,3.87C157.14,209,154.72,202.94,154.72,202.94Z" fill="#ffb997"/><path d="M136.34,222c1.55-.52,13.39-15.53,16.82-19.27,2.24-2.44,7,6.77,7,6.77s-13.36,17.09-17.48,20.63c-4.43,3.8-38.41,7.12-44.09,10.52-2.17,1.3-4.6,1.16-6.06-.9-2-2.81-6.91-16.91,5.68-17.65C105,221.69,125.67,225.6,136.34,222Z" fill="#2f364c"/><path d="M102.4,214.19a1.47,1.47,0,0,1-.48.42,15.41,15.41,0,0,0-2.76,2.29l-.62.67a21.77,21.77,0,0,0-1.4,1.74,29.32,29.32,0,0,0-2.75,4.55S74,225,78,221.86c5.7-4.47,7.46-8.1,8-10.34a6.14,6.14,0,0,0,.16-1.16,4.07,4.07,0,0,0-.1-1.28s3.06.42,6.56,1.1C97.57,211.15,103.47,212.65,102.4,214.19Z" fill="#ffb997"/><path d="M102.4,214.19a1.47,1.47,0,0,1-.48.42,15.41,15.41,0,0,0-2.76,2.29l-.62.67a21.77,21.77,0,0,0-1.4,1.74,9.13,9.13,0,0,1-1.71-.29c-3.82-1-9.49-7.5-9.49-7.5Z" fill="#f67e7d"/><path d="M92.28,297C75.16,285.14,50.7,291.4,50.7,291.4c-10.54-8.25,8.24-14,12.46-41.5,2.72-17.72,11.67-27.86,14-28,7.53-.53,28,.07,27.87,1.29-.79,11.42-1.2,15.69-1.2,15.69C105.78,246.65,96.6,300,92.28,297Z" fill="#2f364c"/><path d="M112,207.39a17.44,17.44,0,0,1,.53,4.18c-.07,2.64-1.27,4.54-4.77,5.41-7.61,1.89-23.18-1.82-25.37-10.64s2.21-17.49,9.82-19.38,14.77,0,17.76,12.53C110.62,202.37,111.44,205,112,207.39Z" fill="#ffb997"/><path d="M109.17,183.79c0,2.88-3.65,9.84-12.64,14.2-6.21,3-2.61,11.09-8.87,13.58-5.84,2.33-9-6.85-9-12.06s.64-8.57,10.58-14.07C97.93,180.63,109.17,178.58,109.17,183.79Z" fill="#2f364c"/><path d="M98.21,205.74c0,2.4-.73,1.11-2.2,1.14s-4.77-3.35-4.81-5.75,1.71-2.87,3.18-2.9S98.16,203.34,98.21,205.74Z" fill="#ffb997"/><path d="M97.39,204.49c1.27.8-.45.69-1.37.71s-3-2.09-3-3.59,1.27-2.39,2-1.81C97,201.34,95.25,203.14,97.39,204.49Z" fill="#f67e7d"/><path d="M109.16,196.75s.58,2.44,4,4.22-2.06,3.51-2.06,3.51Z" fill="#843b62"/><path d="M112,207.39a17.44,17.44,0,0,1,.53,4.18c-1.87.12-3.93-2.21-4.19-3.28s1.58-.39,3.53-.87Z" fill="#ffe7dc"/><path d="M108.82,197.71c.42,1.68.25,3.16-.38,3.32s-1.48-1.07-1.9-2.75-.24-3.17.39-3.32S108.41,196,108.82,197.71Z" fill="#ffe7dc"/><path d="M109,197.66c.27,1.07.16,2-.25,2.11s-.94-.68-1.2-1.75-.16-2,.24-2.11S108.76,196.59,109,197.66Z" fill="#4f323b"/><path d="M108.17,194.26a2.28,2.28,0,0,0-1.82-.41,1.89,1.89,0,0,0-.73.65,6.34,6.34,0,0,0-.51.92h0a6,6,0,0,1,.38-1,2.11,2.11,0,0,1,.76-.81,1.3,1.3,0,0,1,1.15-.09,1.85,1.85,0,0,1,.83.73Z" fill="#092f38"/></g></svg>